<svg width="296" height="283" viewBox="0 0 296 283" fill="none" xmlns="http://www.w3.org/2000/svg">
<path d="M146.093 2.68457C147.104 1.77184 148.642 1.77182 149.653 2.68457L222.933 68.8301V48.9033C222.933 47.436 224.122 46.2461 225.59 46.2461H262.123C263.59 46.2461 264.78 47.436 264.78 48.9033V106.604L292.864 131.955C294.67 133.585 293.517 136.584 291.084 136.584H264.913V278.732C264.913 280.2 263.723 281.39 262.256 281.39H32.8027C31.3354 281.389 30.1465 280.2 30.1465 278.732V136.584H4.66211C2.22907 136.584 1.07594 133.585 2.88184 131.955L146.093 2.68457Z" fill="white"/>
<path d="M146.093 2.68457L145.088 1.57103L145.088 1.5711L146.093 2.68457ZM149.653 2.68457L150.658 1.5711L150.658 1.57104L149.653 2.68457ZM222.933 68.8301L221.928 69.9436L224.433 72.2048V68.8301H222.933ZM222.933 48.9033L221.433 48.9032V48.9033H222.933ZM264.78 48.9033L266.28 48.9033L266.28 48.9032L264.78 48.9033ZM264.78 106.604H263.28V107.271L263.775 107.718L264.78 106.604ZM292.864 131.955L293.869 130.842L293.869 130.842L292.864 131.955ZM291.084 136.584L291.084 138.084L291.084 138.084L291.084 136.584ZM264.913 136.584V135.084H263.413V136.584H264.913ZM32.8027 281.39L32.8026 282.89H32.8027V281.39ZM30.1465 136.584H31.6465V135.084H30.1465V136.584ZM4.66211 136.584L4.66208 138.084H4.66211V136.584ZM2.88184 131.955L1.87675 130.842L1.87666 130.842L2.88184 131.955ZM146.093 2.68457L147.098 3.79811C147.538 3.40064 148.208 3.40066 148.648 3.7981L149.653 2.68457L150.658 1.57104C149.076 0.142985 146.67 0.143029 145.088 1.57103L146.093 2.68457ZM149.653 2.68457L148.648 3.79804L221.928 69.9436L222.933 68.8301L223.938 67.7166L150.658 1.5711L149.653 2.68457ZM222.933 68.8301H224.433V48.9033H222.933H221.433V68.8301H222.933ZM222.933 48.9033L224.433 48.9034C224.433 48.2643 224.951 47.7461 225.59 47.7461V46.2461V44.7461C223.294 44.7461 221.433 46.6076 221.433 48.9032L222.933 48.9033ZM225.59 46.2461V47.7461H262.123V46.2461V44.7461H225.59V46.2461ZM262.123 46.2461V47.7461C262.762 47.7461 263.28 48.2643 263.28 48.9034L264.78 48.9033L266.28 48.9032C266.28 46.6076 264.419 44.7461 262.123 44.7461V46.2461ZM264.78 48.9033H263.28V106.604H264.78H266.28V48.9033H264.78ZM264.78 106.604L263.775 107.718L291.859 133.069L292.864 131.955L293.869 130.842L265.785 105.491L264.78 106.604ZM292.864 131.955L291.859 133.068C292.645 133.778 292.143 135.084 291.084 135.084L291.084 136.584L291.084 138.084C294.891 138.084 296.695 133.392 293.869 130.842L292.864 131.955ZM291.084 136.584V135.084H264.913V136.584V138.084H291.084V136.584ZM264.913 136.584H263.413V278.732H264.913H266.413V136.584H264.913ZM264.913 278.732H263.413C263.413 279.371 262.895 279.89 262.256 279.89V281.39V282.89C264.552 282.89 266.413 281.028 266.413 278.732H264.913ZM262.256 281.39V279.89H32.8027V281.39V282.89H262.256V281.39ZM32.8027 281.39L32.8029 279.89C32.1645 279.89 31.6465 279.372 31.6465 278.732H30.1465H28.6465C28.6465 281.028 30.5064 282.889 32.8026 282.89L32.8027 281.39ZM30.1465 278.732H31.6465V136.584H30.1465H28.6465V278.732H30.1465ZM30.1465 136.584V135.084H4.66211V136.584V138.084H30.1465V136.584ZM4.66211 136.584L4.66214 135.084C3.60279 135.084 3.10057 133.778 3.88701 133.068L2.88184 131.955L1.87666 130.842C-0.948682 133.392 0.855342 138.084 4.66208 138.084L4.66211 136.584ZM2.88184 131.955L3.88692 133.069L147.098 3.79804L146.093 2.68457L145.088 1.5711L1.87675 130.842L2.88184 131.955Z" fill="white"/>
<mask id="path-3-outside-1_3733_333" maskUnits="userSpaceOnUse" x="52.5718" y="111.7" width="81" height="54" fill="black">
<rect fill="white" x="52.5718" y="111.7" width="81" height="54"/>
<path d="M71.3497 138.359C66.073 136.339 62.5552 130.411 62.5552 124.678C62.5552 118.815 66.5942 113.148 76.7568 113.148C91.4796 113.148 102.424 120.77 117.082 120.77C120.534 120.77 124.052 120.053 126.332 117.903L126.723 118.424C124.313 120.704 120.534 121.421 117.082 121.421H115.714L96.9518 150.801H97.2775C101.838 144.678 105.942 140.965 109.069 140.965C111.023 140.965 111.74 142.593 111.74 145.069C111.74 147.544 111.023 149.499 108.417 152.951L106.398 155.622C103.597 159.335 102.619 160.964 102.619 162.202C102.619 163.244 103.271 163.83 104.378 163.83C107.505 163.83 110.176 159.987 113.824 154.58L115.583 151.974C115.844 151.779 116.104 151.779 116.235 151.974L114.476 154.58C111.153 159.531 107.896 164.352 104.313 164.352C101.838 164.352 101.186 162.006 101.186 159.987C101.186 157.251 102.424 154.45 105.16 150.867L107.31 148.065C109.264 145.525 110.176 143.961 110.176 142.854C110.176 142.137 109.851 141.681 108.873 141.681C105.421 141.681 100.274 147.153 94.4111 156.013L89.5904 163.7H84.6393L111.349 121.03C106.724 120.444 102.424 119.271 98.1244 118.033L71.48 160.704L67.1153 163.049H80.2095L79.8838 163.7H53.8257L54.0863 163.049H64.6398L93.6294 116.665C88.2875 115.167 82.8153 113.799 76.7568 113.799C66.985 113.799 63.2066 119.076 63.2066 124.678C63.2066 130.02 66.6593 135.623 71.7406 137.447L71.3497 138.359ZM119.31 164.221C116.183 164.221 114.424 161.16 114.424 157.642C114.424 154.971 115.206 152.104 116.899 149.368C120.026 144.287 125.629 140.965 129.082 140.965C130.775 140.965 131.362 141.942 131.362 142.984C131.362 144.352 130.319 145.85 128.756 147.284C126.541 149.238 123.088 150.801 120.157 151.648C118.528 154.58 116.965 158.098 116.965 160.769C116.965 162.462 117.616 163.57 119.505 163.57C122.828 163.57 126.606 160.573 132.078 151.974C132.339 151.713 132.73 151.713 132.73 151.974C126.997 161.029 122.958 164.221 119.31 164.221ZM120.417 151.062C123.153 150.15 126.28 148.587 128.3 146.762C129.798 145.394 130.775 143.961 130.775 142.789C130.775 142.007 130.384 141.486 129.472 141.486C127.257 141.486 124.065 144.873 120.873 150.345L120.417 151.062Z"/>
</mask>
<path d="M71.3497 138.359C66.073 136.339 62.5552 130.411 62.5552 124.678C62.5552 118.815 66.5942 113.148 76.7568 113.148C91.4796 113.148 102.424 120.77 117.082 120.77C120.534 120.77 124.052 120.053 126.332 117.903L126.723 118.424C124.313 120.704 120.534 121.421 117.082 121.421H115.714L96.9518 150.801H97.2775C101.838 144.678 105.942 140.965 109.069 140.965C111.023 140.965 111.74 142.593 111.74 145.069C111.74 147.544 111.023 149.499 108.417 152.951L106.398 155.622C103.597 159.335 102.619 160.964 102.619 162.202C102.619 163.244 103.271 163.83 104.378 163.83C107.505 163.83 110.176 159.987 113.824 154.58L115.583 151.974C115.844 151.779 116.104 151.779 116.235 151.974L114.476 154.58C111.153 159.531 107.896 164.352 104.313 164.352C101.838 164.352 101.186 162.006 101.186 159.987C101.186 157.251 102.424 154.45 105.16 150.867L107.31 148.065C109.264 145.525 110.176 143.961 110.176 142.854C110.176 142.137 109.851 141.681 108.873 141.681C105.421 141.681 100.274 147.153 94.4111 156.013L89.5904 163.7H84.6393L111.349 121.03C106.724 120.444 102.424 119.271 98.1244 118.033L71.48 160.704L67.1153 163.049H80.2095L79.8838 163.7H53.8257L54.0863 163.049H64.6398L93.6294 116.665C88.2875 115.167 82.8153 113.799 76.7568 113.799C66.985 113.799 63.2066 119.076 63.2066 124.678C63.2066 130.02 66.6593 135.623 71.7406 137.447L71.3497 138.359ZM119.31 164.221C116.183 164.221 114.424 161.16 114.424 157.642C114.424 154.971 115.206 152.104 116.899 149.368C120.026 144.287 125.629 140.965 129.082 140.965C130.775 140.965 131.362 141.942 131.362 142.984C131.362 144.352 130.319 145.85 128.756 147.284C126.541 149.238 123.088 150.801 120.157 151.648C118.528 154.58 116.965 158.098 116.965 160.769C116.965 162.462 117.616 163.57 119.505 163.57C122.828 163.57 126.606 160.573 132.078 151.974C132.339 151.713 132.73 151.713 132.73 151.974C126.997 161.029 122.958 164.221 119.31 164.221ZM120.417 151.062C123.153 150.15 126.28 148.587 128.3 146.762C129.798 145.394 130.775 143.961 130.775 142.789C130.775 142.007 130.384 141.486 129.472 141.486C127.257 141.486 124.065 144.873 120.873 150.345L120.417 151.062Z" fill="black"/>
<path d="M71.3497 138.359L71.1123 138.979L71.7087 139.207L71.9603 138.62L71.3497 138.359ZM126.332 117.903L126.864 117.505L126.418 116.91L125.877 117.42L126.332 117.903ZM126.723 118.424L127.18 118.907L127.61 118.5L127.254 118.026L126.723 118.424ZM115.714 121.421V120.757H115.35L115.154 121.064L115.714 121.421ZM96.9518 150.801L96.3919 150.444L95.7395 151.466H96.9518V150.801ZM97.2775 150.801V151.466H97.611L97.8103 151.198L97.2775 150.801ZM108.417 152.951L108.947 153.352L108.948 153.351L108.417 152.951ZM106.398 155.622L105.868 155.222L105.868 155.222L106.398 155.622ZM113.824 154.58L113.274 154.208L113.274 154.208L113.824 154.58ZM115.583 151.974L115.185 151.443L115.095 151.51L115.033 151.602L115.583 151.974ZM116.235 151.974L116.785 152.346L117.035 151.976L116.787 151.606L116.235 151.974ZM114.476 154.58L113.925 154.208L113.924 154.21L114.476 154.58ZM105.16 150.867L104.633 150.462L104.632 150.463L105.16 150.867ZM107.31 148.065L106.783 147.66L106.783 147.661L107.31 148.065ZM94.4111 156.013L93.8572 155.646L93.8527 155.653L93.8484 155.66L94.4111 156.013ZM89.5904 163.7V164.364H89.9579L90.1531 164.053L89.5904 163.7ZM84.6393 163.7L84.0763 163.348L83.4399 164.364H84.6393V163.7ZM111.349 121.03L111.912 121.383L112.463 120.502L111.432 120.371L111.349 121.03ZM98.1244 118.033L98.3081 117.395L97.8265 117.256L97.561 117.682L98.1244 118.033ZM71.48 160.704L71.7944 161.289L71.95 161.205L72.0435 161.055L71.48 160.704ZM67.1153 163.049L66.8009 162.464L67.1153 163.713V163.049ZM80.2095 163.049L80.8036 163.346L81.2843 162.384H80.2095V163.049ZM79.8838 163.7V164.364H80.2943L80.4779 163.997L79.8838 163.7ZM53.8257 163.7L53.209 163.454L52.8446 164.364H53.8257V163.7ZM54.0863 163.049V162.384H53.6366L53.4696 162.802L54.0863 163.049ZM64.6398 163.049V163.713H65.008L65.2031 163.401L64.6398 163.049ZM93.6294 116.665L94.1927 117.017L94.6627 116.265L93.8088 116.026L93.6294 116.665ZM71.7406 137.447L72.3512 137.708L72.6291 137.06L71.965 136.822L71.7406 137.447ZM71.3497 138.359L71.5872 137.738C66.6083 135.833 63.2194 130.182 63.2194 124.678H62.5552H61.8909C61.8909 130.64 65.5377 136.846 71.1123 138.979L71.3497 138.359ZM62.5552 124.678H63.2194C63.2194 121.9 64.174 119.203 66.3007 117.198C68.4274 115.192 71.7984 113.812 76.7568 113.812V113.148V112.483C71.5526 112.483 67.8228 113.937 65.3893 116.231C62.9558 118.525 61.8909 121.594 61.8909 124.678H62.5552ZM76.7568 113.148V113.812C84.0079 113.812 90.3363 115.687 96.7543 117.595C103.153 119.498 109.642 121.434 117.082 121.434V120.77V120.105C109.863 120.105 103.552 118.23 97.1329 116.322C90.7337 114.419 84.2285 112.483 76.7568 112.483V113.148ZM117.082 120.77V121.434C120.591 121.434 124.322 120.712 126.788 118.386L126.332 117.903L125.877 117.42C123.782 119.394 120.477 120.105 117.082 120.105V120.77ZM126.332 117.903L125.801 118.302L126.192 118.823L126.723 118.424L127.254 118.026L126.864 117.505L126.332 117.903ZM126.723 118.424L126.267 117.942C124.045 120.044 120.482 120.757 117.082 120.757V121.421V122.085C120.586 122.085 124.581 121.365 127.18 118.907L126.723 118.424ZM117.082 121.421V120.757H115.714V121.421V122.085H117.082V121.421ZM115.714 121.421L115.154 121.064L96.3919 150.444L96.9518 150.801L97.5116 151.159L116.273 121.779L115.714 121.421ZM96.9518 150.801V151.466H97.2775V150.801V150.137H96.9518V150.801ZM97.2775 150.801L97.8103 151.198C100.076 148.156 102.208 145.74 104.141 144.092C106.096 142.426 107.749 141.629 109.069 141.629V140.965V140.3C107.261 140.3 105.299 141.36 103.28 143.081C101.239 144.82 99.0393 147.324 96.7447 150.405L97.2775 150.801ZM109.069 140.965V141.629C109.82 141.629 110.266 141.919 110.565 142.426C110.898 142.99 111.075 143.873 111.075 145.069H111.74H112.404C112.404 143.789 112.223 142.62 111.709 141.75C111.162 140.824 110.272 140.3 109.069 140.3V140.965ZM111.74 145.069H111.075C111.075 147.344 110.447 149.159 107.887 152.551L108.417 152.951L108.948 153.351C111.599 149.838 112.404 147.744 112.404 145.069H111.74ZM108.417 152.951L107.887 152.551L105.868 155.222L106.398 155.622L106.928 156.023L108.947 153.352L108.417 152.951ZM106.398 155.622L105.868 155.222C104.467 157.079 103.5 158.443 102.883 159.507C102.27 160.566 101.955 161.406 101.955 162.202H102.619H103.284C103.284 161.76 103.457 161.167 104.033 160.173C104.605 159.186 105.528 157.878 106.928 156.022L106.398 155.622ZM102.619 162.202H101.955C101.955 162.865 102.167 163.467 102.634 163.896C103.093 164.318 103.713 164.495 104.378 164.495V163.83V163.166C103.936 163.166 103.677 163.05 103.533 162.918C103.398 162.794 103.284 162.581 103.284 162.202H102.619ZM104.378 163.83V164.495C106.23 164.495 107.847 163.356 109.393 161.684C110.95 160.002 112.559 157.643 114.375 154.951L113.824 154.58L113.274 154.208C111.441 156.924 109.891 159.19 108.418 160.782C106.936 162.384 105.653 163.166 104.378 163.166V163.83ZM113.824 154.58L114.375 154.952L116.134 152.346L115.583 151.974L115.033 151.602L113.274 154.208L113.824 154.58ZM115.583 151.974L115.982 152.505C116.035 152.465 116.029 152.492 115.958 152.492C115.919 152.492 115.864 152.483 115.807 152.453C115.749 152.423 115.708 152.381 115.682 152.343L116.235 151.974L116.787 151.606C116.593 151.314 116.283 151.163 115.958 151.163C115.659 151.163 115.392 151.287 115.185 151.443L115.583 151.974ZM116.235 151.974L115.684 151.602L113.925 154.208L114.476 154.58L115.026 154.952L116.785 152.346L116.235 151.974ZM114.476 154.58L113.924 154.21C112.255 156.697 110.64 159.094 109.003 160.873C107.348 162.673 105.807 163.687 104.313 163.687V164.352V165.016C106.402 165.016 108.282 163.62 109.981 161.772C111.7 159.903 113.374 157.414 115.027 154.95L114.476 154.58ZM104.313 164.352V163.687C103.337 163.687 102.766 163.25 102.4 162.601C102.008 161.904 101.85 160.945 101.85 159.987H101.186H100.522C100.522 161.049 100.69 162.271 101.243 163.253C101.821 164.28 102.813 165.016 104.313 165.016V164.352ZM101.186 159.987H101.85C101.85 157.467 102.985 154.809 105.688 151.27L105.16 150.867L104.632 150.463C101.863 154.09 100.522 157.035 100.522 159.987H101.186ZM105.16 150.867L105.687 151.271L107.837 148.47L107.31 148.065L106.783 147.661L104.633 150.462L105.16 150.867ZM107.31 148.065L107.836 148.47C108.819 147.193 109.56 146.136 110.056 145.246C110.547 144.366 110.84 143.578 110.84 142.854H110.176H109.512C109.512 143.237 109.35 143.784 108.896 144.599C108.448 145.402 107.755 146.397 106.783 147.66L107.31 148.065ZM110.176 142.854H110.84C110.84 142.408 110.74 141.908 110.361 141.529C109.983 141.151 109.452 141.017 108.873 141.017V141.681V142.345C109.272 142.345 109.392 142.439 109.422 142.468C109.45 142.496 109.512 142.583 109.512 142.854H110.176ZM108.873 141.681V141.017C107.84 141.017 106.748 141.423 105.634 142.109C104.513 142.798 103.321 143.798 102.074 145.057C99.5793 147.577 96.7994 151.2 93.8572 155.646L94.4111 156.013L94.9651 156.38C97.8859 151.966 100.611 148.423 103.018 145.992C104.222 144.776 105.33 143.855 106.329 143.24C107.334 142.623 108.18 142.345 108.873 142.345V141.681ZM94.4111 156.013L93.8484 155.66L89.0276 163.347L89.5904 163.7L90.1531 164.053L94.9739 156.366L94.4111 156.013ZM89.5904 163.7V163.036H84.6393V163.7V164.364H89.5904V163.7ZM84.6393 163.7L85.2024 164.053L111.912 121.383L111.349 121.03L110.786 120.678L84.0763 163.348L84.6393 163.7ZM111.349 121.03L111.432 120.371C106.862 119.792 102.606 118.632 98.3081 117.395L98.1244 118.033L97.9406 118.672C102.242 119.91 106.585 121.096 111.265 121.689L111.349 121.03ZM98.1244 118.033L97.561 117.682L70.9166 160.352L71.48 160.704L72.0435 161.055L98.6878 118.385L98.1244 118.033ZM71.48 160.704L71.1656 160.118L66.8009 162.464L67.1153 163.049L67.4297 163.634L71.7944 161.289L71.48 160.704ZM67.1153 163.049V163.713H80.2095V163.049V162.384H67.1153V163.049ZM80.2095 163.049L79.6154 162.752L79.2896 163.403L79.8838 163.7L80.4779 163.997L80.8036 163.346L80.2095 163.049ZM79.8838 163.7V163.036H53.8257V163.7V164.364H79.8838V163.7ZM53.8257 163.7L54.4424 163.947L54.703 163.295L54.0863 163.049L53.4696 162.802L53.209 163.454L53.8257 163.7ZM54.0863 163.049V163.713H64.6398V163.049V162.384H54.0863V163.049ZM64.6398 163.049L65.2031 163.401L94.1927 117.017L93.6294 116.665L93.0661 116.313L64.0765 162.697L64.6398 163.049ZM93.6294 116.665L93.8088 116.026C88.46 114.526 82.9128 113.135 76.7568 113.135V113.799V114.463C82.7178 114.463 88.115 115.809 93.45 117.305L93.6294 116.665ZM76.7568 113.799V113.135C71.7537 113.135 68.1861 114.487 65.8643 116.652C63.5405 118.818 62.5424 121.727 62.5424 124.678H63.2066H63.8709C63.8709 122.027 64.7619 119.496 66.7703 117.624C68.7806 115.749 71.9881 114.463 76.7568 114.463V113.799ZM63.2066 124.678H62.5424C62.5424 130.262 66.1363 136.141 71.5162 138.072L71.7406 137.447L71.965 136.822C67.1823 135.105 63.8709 129.779 63.8709 124.678H63.2066ZM71.7406 137.447L71.1301 137.185L70.7392 138.097L71.3497 138.359L71.9603 138.62L72.3512 137.708L71.7406 137.447ZM116.899 149.368L117.464 149.718L117.465 149.716L116.899 149.368ZM128.756 147.284L129.195 147.782L129.205 147.773L128.756 147.284ZM120.157 151.648L119.972 151.01L119.709 151.086L119.576 151.326L120.157 151.648ZM132.078 151.974L131.609 151.504L131.557 151.556L131.518 151.617L132.078 151.974ZM132.73 151.974L133.291 152.329L133.394 152.167V151.974H132.73ZM120.417 151.062L119.857 150.705L118.852 152.284L120.627 151.692L120.417 151.062ZM128.3 146.762L128.745 147.255L128.748 147.253L128.3 146.762ZM120.873 150.345L121.434 150.702L121.441 150.691L121.447 150.68L120.873 150.345ZM119.31 164.221V163.557C117.995 163.557 116.966 162.925 116.241 161.874C115.504 160.805 115.088 159.3 115.088 157.642H114.424H113.76C113.76 159.501 114.223 161.287 115.147 162.628C116.084 163.986 117.498 164.886 119.31 164.886V164.221ZM114.424 157.642H115.088C115.088 155.101 115.832 152.355 117.464 149.718L116.899 149.368L116.335 149.019C114.579 151.854 113.76 154.841 113.76 157.642H114.424ZM116.899 149.368L117.465 149.716C118.972 147.267 121.082 145.234 123.234 143.815C125.401 142.387 127.537 141.629 129.082 141.629V140.965V140.3C127.174 140.3 124.782 141.204 122.503 142.706C120.208 144.219 117.954 146.388 116.334 149.02L116.899 149.368ZM129.082 140.965V141.629C129.799 141.629 130.176 141.832 130.377 142.043C130.585 142.26 130.697 142.581 130.697 142.984H131.362H132.026C132.026 142.345 131.845 141.656 131.337 141.124C130.821 140.585 130.058 140.3 129.082 140.3V140.965ZM131.362 142.984H130.697C130.697 143.501 130.499 144.094 130.083 144.756C129.668 145.414 129.061 146.102 128.307 146.794L128.756 147.284L129.205 147.773C130.014 147.032 130.71 146.254 131.207 145.463C131.703 144.675 132.026 143.836 132.026 142.984H131.362ZM128.756 147.284L128.316 146.786C126.203 148.651 122.853 150.178 119.972 151.01L120.157 151.648L120.341 152.287C123.324 151.425 126.879 149.825 129.195 147.782L128.756 147.284ZM120.157 151.648L119.576 151.326C118.752 152.809 117.938 154.452 117.328 156.072C116.722 157.684 116.3 159.318 116.3 160.769H116.965H117.629C117.629 159.549 117.989 158.088 118.572 156.54C119.151 155.001 119.933 153.42 120.737 151.971L120.157 151.648ZM116.965 160.769H116.3C116.3 161.681 116.472 162.564 117.012 163.225C117.574 163.913 118.428 164.234 119.505 164.234V163.57V162.906C118.694 162.906 118.277 162.673 118.041 162.384C117.783 162.068 117.629 161.55 117.629 160.769H116.965ZM119.505 163.57V164.234C121.386 164.234 123.312 163.38 125.428 161.492C127.538 159.609 129.89 156.651 132.639 152.331L132.078 151.974L131.518 151.617C128.795 155.897 126.52 158.737 124.543 160.501C122.571 162.261 120.947 162.906 119.505 162.906V163.57ZM132.078 151.974L132.548 152.444C132.571 152.42 132.571 152.443 132.502 152.443C132.466 152.443 132.36 152.435 132.25 152.346C132.119 152.242 132.065 152.092 132.065 151.974H132.73H133.394C133.394 151.725 133.292 151.478 133.079 151.309C132.887 151.155 132.668 151.114 132.502 151.114C132.171 151.114 131.846 151.267 131.609 151.504L132.078 151.974ZM132.73 151.974L132.168 151.619C129.315 156.125 126.912 159.127 124.798 160.996C122.691 162.859 120.919 163.557 119.31 163.557V164.221V164.886C121.348 164.886 123.42 163.988 125.678 161.991C127.929 160 130.411 156.878 133.291 152.329L132.73 151.974ZM120.417 151.062L120.627 151.692C123.414 150.763 126.634 149.162 128.745 147.255L128.3 146.762L127.855 146.27C125.927 148.011 122.893 149.537 120.207 150.432L120.417 151.062ZM128.3 146.762L128.748 147.253C129.526 146.543 130.188 145.799 130.659 145.06C131.126 144.329 131.44 143.551 131.44 142.789H130.775H130.111C130.111 143.198 129.936 143.724 129.54 144.345C129.148 144.958 128.572 145.614 127.852 146.272L128.3 146.762ZM130.775 142.789H131.44C131.44 142.296 131.316 141.784 130.953 141.392C130.581 140.991 130.055 140.821 129.472 140.821V141.486V142.15C129.802 142.15 129.928 142.241 129.979 142.296C130.039 142.36 130.111 142.5 130.111 142.789H130.775ZM129.472 141.486V140.821C128.753 140.821 128.017 141.094 127.297 141.533C126.573 141.976 125.822 142.612 125.061 143.403C123.537 144.985 121.911 147.249 120.3 150.011L120.873 150.345L121.447 150.68C123.028 147.97 124.594 145.804 126.018 144.324C126.73 143.584 127.392 143.032 127.989 142.668C128.59 142.301 129.084 142.15 129.472 142.15V141.486ZM120.873 150.345L120.313 149.989L119.857 150.705L120.417 151.062L120.978 151.419L121.434 150.702L120.873 150.345Z" fill="black" mask="url(#path-3-outside-1_3733_333)"/>
<mask id="path-5-outside-2_3733_333" maskUnits="userSpaceOnUse" x="81.6152" y="151.518" width="153" height="54" fill="black">
<rect fill="white" x="81.6152" y="151.518" width="153" height="54"/>
<path d="M98.0318 204.101C87.0223 204.101 82.4621 197.391 82.4621 190.616C82.4621 181.561 90.7355 171.659 105.393 171.659V172.766C91.1916 172.766 83.2439 182.017 83.2439 190.616C83.2439 197.196 87.9995 203.254 97.6409 203.254C111.908 203.254 113.601 188.987 114.97 178.955C116.598 166.838 118.422 155.763 130.409 155.763H133.927L132.494 157.848C131.191 156.806 130.409 156.415 128.65 156.415C121.484 156.415 121.745 162.669 120.051 177.131C119.139 184.883 116.598 204.101 98.0318 204.101ZM125.411 200.974C122.349 200.974 121.177 197.391 121.177 194.85C121.177 185.665 128.929 177.782 135.704 177.782H135.834C136.681 177.782 137.398 177.978 137.919 178.304L138.114 178.369H145.736C145.801 178.564 145.867 178.76 145.541 178.955H138.636C139.157 179.672 139.417 180.714 139.417 182.017C139.417 184.818 138.245 188.336 136.225 191.723C133.424 196.414 128.929 200.974 125.411 200.974ZM125.411 200.388C128.603 200.388 132.382 195.828 135.118 191.072C137.137 187.554 138.636 184.036 138.636 181.431C138.636 180.323 138.375 179.476 137.854 178.955H134.662C132.512 180.258 129.776 183.45 127.496 187.033C125.15 190.811 123.326 195.046 123.326 197.847C123.326 199.411 123.848 200.388 125.411 200.388ZM141.924 201.039C140.165 201.039 138.863 199.606 138.863 196.349C138.863 193.222 140.361 189.965 144.139 184.362L147.527 179.346L147.331 178.955H144.595C144.53 178.76 144.66 178.499 144.921 178.369H152.087L152.217 179.085L146.354 187.815C141.468 195.111 140.231 196.87 140.231 198.629C140.231 199.801 140.752 200.453 141.924 200.453C145.442 200.453 149.677 194.916 153.976 188.01L159.383 179.346L159.188 178.955H156.712C156.712 178.76 156.777 178.564 157.038 178.369H164.139L164.269 179.085L156.908 190.681C153.52 196.023 152.608 197.456 152.608 198.824C152.608 199.997 153.26 200.518 154.367 200.518C157.364 200.518 160.1 196.805 163.748 191.398L165.507 188.792C165.767 188.597 166.028 188.597 166.158 188.792L164.399 191.398C161.077 196.349 157.885 201.039 154.367 201.039C152.087 201.039 151.436 199.085 151.436 196.74C151.436 195.502 151.566 194.069 151.761 192.766H151.436C148.374 197.326 144.791 201.039 141.924 201.039ZM181.122 201.17C178.646 201.17 177.995 198.824 177.995 196.805C177.995 194.069 179.233 191.267 181.969 187.684L184.119 184.883C186.073 182.343 186.985 180.779 186.985 179.672C186.985 178.955 186.659 178.499 185.682 178.499C182.425 178.499 177.604 183.385 172.132 191.463L171.806 191.984L166.269 200.518H161.709L171.155 185.6C172.588 183.385 173.435 181.821 173.435 180.649C173.435 179.541 172.979 178.955 171.285 178.955H168.614C168.679 178.694 168.809 178.499 168.94 178.369H171.546C173.565 178.369 174.477 179.281 174.477 181.691V186.512H174.933C179.167 181.04 182.946 177.782 185.877 177.782C187.832 177.782 188.548 179.411 188.548 181.887C188.548 184.362 187.832 186.316 185.226 189.769L183.206 192.44C180.405 196.153 179.428 197.782 179.428 199.02C179.428 200.062 180.08 200.648 181.187 200.648C184.314 200.648 186.985 196.805 190.633 191.398L192.392 188.792C192.653 188.597 192.913 188.597 193.043 188.792L191.284 191.398C187.962 196.349 184.705 201.17 181.122 201.17ZM207.049 200.974C204.639 200.974 203.662 199.085 203.662 195.893C203.662 194.655 203.792 193.352 204.183 192.049H203.792C199.623 198.238 196.756 201.235 194.281 201.235C191.935 201.235 190.633 198.433 190.633 195.372C190.633 192.375 191.87 189.248 193.499 186.707C196.952 181.3 202.619 177.782 208.743 177.782C209.915 177.782 210.828 177.848 211.935 178.108L225.55 156.415H214.606L214.997 155.763H224.964C227.83 155.763 229.98 155.047 231.609 152.832H232.456L210.502 187.88C207.31 193.026 205.16 196.284 205.16 198.433C205.16 199.671 205.616 200.453 207.049 200.453C210.111 200.453 213.108 196.935 216.43 191.984L218.58 188.792C218.84 188.662 219.101 188.662 219.231 188.792L216.951 192.179C213.694 197 210.567 200.974 207.049 200.974ZM192.717 198.629C192.717 199.867 193.369 200.648 194.411 200.648C196.496 200.648 199.427 197.652 203.662 191.072L208.222 183.971L211.414 178.89C210.762 178.499 209.915 178.304 208.743 178.304C204.443 178.304 201.381 181.691 197.603 187.359C194.737 191.593 192.717 195.958 192.717 198.629Z"/>
</mask>
<path d="M98.0318 204.101C87.0223 204.101 82.4621 197.391 82.4621 190.616C82.4621 181.561 90.7355 171.659 105.393 171.659V172.766C91.1916 172.766 83.2439 182.017 83.2439 190.616C83.2439 197.196 87.9995 203.254 97.6409 203.254C111.908 203.254 113.601 188.987 114.97 178.955C116.598 166.838 118.422 155.763 130.409 155.763H133.927L132.494 157.848C131.191 156.806 130.409 156.415 128.65 156.415C121.484 156.415 121.745 162.669 120.051 177.131C119.139 184.883 116.598 204.101 98.0318 204.101ZM125.411 200.974C122.349 200.974 121.177 197.391 121.177 194.85C121.177 185.665 128.929 177.782 135.704 177.782H135.834C136.681 177.782 137.398 177.978 137.919 178.304L138.114 178.369H145.736C145.801 178.564 145.867 178.76 145.541 178.955H138.636C139.157 179.672 139.417 180.714 139.417 182.017C139.417 184.818 138.245 188.336 136.225 191.723C133.424 196.414 128.929 200.974 125.411 200.974ZM125.411 200.388C128.603 200.388 132.382 195.828 135.118 191.072C137.137 187.554 138.636 184.036 138.636 181.431C138.636 180.323 138.375 179.476 137.854 178.955H134.662C132.512 180.258 129.776 183.45 127.496 187.033C125.15 190.811 123.326 195.046 123.326 197.847C123.326 199.411 123.848 200.388 125.411 200.388ZM141.924 201.039C140.165 201.039 138.863 199.606 138.863 196.349C138.863 193.222 140.361 189.965 144.139 184.362L147.527 179.346L147.331 178.955H144.595C144.53 178.76 144.66 178.499 144.921 178.369H152.087L152.217 179.085L146.354 187.815C141.468 195.111 140.231 196.87 140.231 198.629C140.231 199.801 140.752 200.453 141.924 200.453C145.442 200.453 149.677 194.916 153.976 188.01L159.383 179.346L159.188 178.955H156.712C156.712 178.76 156.777 178.564 157.038 178.369H164.139L164.269 179.085L156.908 190.681C153.52 196.023 152.608 197.456 152.608 198.824C152.608 199.997 153.26 200.518 154.367 200.518C157.364 200.518 160.1 196.805 163.748 191.398L165.507 188.792C165.767 188.597 166.028 188.597 166.158 188.792L164.399 191.398C161.077 196.349 157.885 201.039 154.367 201.039C152.087 201.039 151.436 199.085 151.436 196.74C151.436 195.502 151.566 194.069 151.761 192.766H151.436C148.374 197.326 144.791 201.039 141.924 201.039ZM181.122 201.17C178.646 201.17 177.995 198.824 177.995 196.805C177.995 194.069 179.233 191.267 181.969 187.684L184.119 184.883C186.073 182.343 186.985 180.779 186.985 179.672C186.985 178.955 186.659 178.499 185.682 178.499C182.425 178.499 177.604 183.385 172.132 191.463L171.806 191.984L166.269 200.518H161.709L171.155 185.6C172.588 183.385 173.435 181.821 173.435 180.649C173.435 179.541 172.979 178.955 171.285 178.955H168.614C168.679 178.694 168.809 178.499 168.94 178.369H171.546C173.565 178.369 174.477 179.281 174.477 181.691V186.512H174.933C179.167 181.04 182.946 177.782 185.877 177.782C187.832 177.782 188.548 179.411 188.548 181.887C188.548 184.362 187.832 186.316 185.226 189.769L183.206 192.44C180.405 196.153 179.428 197.782 179.428 199.02C179.428 200.062 180.08 200.648 181.187 200.648C184.314 200.648 186.985 196.805 190.633 191.398L192.392 188.792C192.653 188.597 192.913 188.597 193.043 188.792L191.284 191.398C187.962 196.349 184.705 201.17 181.122 201.17ZM207.049 200.974C204.639 200.974 203.662 199.085 203.662 195.893C203.662 194.655 203.792 193.352 204.183 192.049H203.792C199.623 198.238 196.756 201.235 194.281 201.235C191.935 201.235 190.633 198.433 190.633 195.372C190.633 192.375 191.87 189.248 193.499 186.707C196.952 181.3 202.619 177.782 208.743 177.782C209.915 177.782 210.828 177.848 211.935 178.108L225.55 156.415H214.606L214.997 155.763H224.964C227.83 155.763 229.98 155.047 231.609 152.832H232.456L210.502 187.88C207.31 193.026 205.16 196.284 205.16 198.433C205.16 199.671 205.616 200.453 207.049 200.453C210.111 200.453 213.108 196.935 216.43 191.984L218.58 188.792C218.84 188.662 219.101 188.662 219.231 188.792L216.951 192.179C213.694 197 210.567 200.974 207.049 200.974ZM192.717 198.629C192.717 199.867 193.369 200.648 194.411 200.648C196.496 200.648 199.427 197.652 203.662 191.072L208.222 183.971L211.414 178.89C210.762 178.499 209.915 178.304 208.743 178.304C204.443 178.304 201.381 181.691 197.603 187.359C194.737 191.593 192.717 195.958 192.717 198.629Z" fill="black"/>
<path d="M105.393 171.659H106.057V170.995H105.393V171.659ZM105.393 172.766V173.43H106.057V172.766H105.393ZM114.97 178.955L115.628 179.045L115.628 179.044L114.97 178.955ZM133.927 155.763L134.474 156.14L135.19 155.099H133.927V155.763ZM132.494 157.848L132.079 158.367L132.636 158.813L133.041 158.224L132.494 157.848ZM120.051 177.131L120.711 177.209L120.711 177.208L120.051 177.131ZM98.0318 204.101V203.437C92.6661 203.437 88.9563 201.805 86.5888 199.43C84.216 197.05 83.1264 193.857 83.1264 190.616H82.4621H81.7979C81.7979 194.15 82.9883 197.7 85.6479 200.368C88.313 203.042 92.388 204.765 98.0318 204.765V204.101ZM82.4621 190.616H83.1264C83.1264 181.976 91.0526 172.323 105.393 172.323V171.659V170.995C90.4185 170.995 81.7979 181.146 81.7979 190.616H82.4621ZM105.393 171.659H104.729V172.766H105.393H106.057V171.659H105.393ZM105.393 172.766V172.102C90.892 172.102 82.5796 181.586 82.5796 190.616H83.2439H83.9081C83.9081 182.448 91.4912 173.43 105.393 173.43V172.766ZM83.2439 190.616H82.5796C82.5796 194.066 83.8281 197.403 86.3628 199.878C88.9009 202.355 92.6768 203.918 97.6409 203.918V203.254V202.59C92.9636 202.59 89.5409 201.124 87.2908 198.927C85.0374 196.727 83.9081 193.745 83.9081 190.616H83.2439ZM97.6409 203.254V203.918C101.324 203.918 104.24 202.995 106.55 201.417C108.854 199.842 110.513 197.644 111.738 195.161C114.173 190.223 114.948 184.029 115.628 179.045L114.97 178.955L114.311 178.865C113.623 183.914 112.867 189.869 110.547 194.573C109.394 196.911 107.868 198.906 105.8 200.32C103.737 201.73 101.091 202.59 97.6409 202.59V203.254ZM114.97 178.955L115.628 179.044C116.446 172.958 117.3 167.279 119.398 163.114C120.439 161.048 121.772 159.387 123.532 158.239C125.288 157.094 127.519 156.428 130.409 156.428V155.763V155.099C127.306 155.099 124.813 155.817 122.806 157.127C120.802 158.434 119.329 160.299 118.212 162.516C115.994 166.918 115.122 172.835 114.311 178.867L114.97 178.955ZM130.409 155.763V156.428H133.927V155.763V155.099H130.409V155.763ZM133.927 155.763L133.379 155.387L131.946 157.472L132.494 157.848L133.041 158.224L134.474 156.14L133.927 155.763ZM132.494 157.848L132.909 157.329C132.244 156.798 131.66 156.388 130.986 156.123C130.305 155.854 129.58 155.751 128.65 155.751V156.415V157.079C129.479 157.079 130.024 157.171 130.499 157.358C130.982 157.549 131.44 157.856 132.079 158.367L132.494 157.848ZM128.65 156.415V155.751C126.762 155.751 125.27 156.164 124.105 157.1C122.95 158.03 122.204 159.406 121.664 161.153C121.124 162.899 120.768 165.087 120.442 167.711C120.117 170.325 119.811 173.465 119.391 177.054L120.051 177.131L120.711 177.208C121.137 173.566 121.434 170.5 121.76 167.875C122.086 165.258 122.43 163.171 122.933 161.546C123.435 159.922 124.073 158.831 124.938 158.136C125.793 157.448 126.955 157.079 128.65 157.079V156.415ZM120.051 177.131L119.391 177.053C118.935 180.934 118.08 187.561 115.075 193.211C113.578 196.027 111.558 198.578 108.806 200.426C106.061 202.269 102.552 203.437 98.0318 203.437V204.101V204.765C102.795 204.765 106.566 203.531 109.547 201.529C112.523 199.53 114.676 196.792 116.248 193.835C119.383 187.939 120.255 181.08 120.711 177.209L120.051 177.131ZM137.919 178.304L137.567 178.867L137.634 178.909L137.709 178.934L137.919 178.304ZM138.114 178.369L137.904 178.999L138.007 179.033H138.114V178.369ZM145.736 178.369L146.367 178.159L146.215 177.704H145.736V178.369ZM145.541 178.955V179.619H145.725L145.883 179.525L145.541 178.955ZM138.636 178.955V178.291H137.331L138.098 179.346L138.636 178.955ZM136.225 191.723L136.795 192.064L136.796 192.064L136.225 191.723ZM135.118 191.072L135.693 191.403L135.694 191.403L135.118 191.072ZM137.854 178.955L138.323 178.485L138.129 178.291H137.854V178.955ZM134.662 178.955V178.291H134.476L134.317 178.387L134.662 178.955ZM127.496 187.033L126.935 186.676L126.931 186.683L127.496 187.033ZM125.411 200.974V200.31C124.194 200.31 123.325 199.617 122.726 198.542C122.118 197.45 121.841 196.037 121.841 194.85H121.177H120.512C120.512 196.205 120.822 197.853 121.565 199.188C122.318 200.54 123.566 201.638 125.411 201.638V200.974ZM121.177 194.85H121.841C121.841 190.444 123.703 186.329 126.395 183.314C129.098 180.288 132.562 178.447 135.704 178.447V177.782V177.118C132.071 177.118 128.272 179.218 125.404 182.429C122.527 185.652 120.512 190.072 120.512 194.85H121.177ZM135.704 177.782V178.447H135.834V177.782V177.118H135.704V177.782ZM135.834 177.782V178.447C136.585 178.447 137.173 178.62 137.567 178.867L137.919 178.304L138.271 177.74C137.623 177.335 136.778 177.118 135.834 177.118V177.782ZM137.919 178.304L137.709 178.934L137.904 178.999L138.114 178.369L138.324 177.739L138.129 177.673L137.919 178.304ZM138.114 178.369V179.033H145.736V178.369V177.704H138.114V178.369ZM145.736 178.369L145.106 178.579C145.115 178.605 145.12 178.62 145.124 178.634C145.128 178.647 145.129 178.652 145.129 178.651C145.129 178.65 145.12 178.611 145.13 178.553C145.141 178.487 145.168 178.433 145.197 178.396C145.221 178.366 145.233 178.365 145.199 178.385L145.541 178.955L145.883 179.525C146.148 179.366 146.382 179.124 146.44 178.771C146.489 178.482 146.387 178.221 146.367 178.159L145.736 178.369ZM145.541 178.955V178.291H138.636V178.955V179.619H145.541V178.955ZM138.636 178.955L138.098 179.346C138.505 179.904 138.753 180.787 138.753 182.017H139.417H140.082C140.082 180.641 139.809 179.439 139.173 178.564L138.636 178.955ZM139.417 182.017H138.753C138.753 184.657 137.638 188.056 135.655 191.383L136.225 191.723L136.796 192.064C138.851 188.616 140.082 184.98 140.082 182.017H139.417ZM136.225 191.723L135.655 191.383C134.282 193.681 132.498 195.94 130.642 197.614C128.758 199.314 126.914 200.31 125.411 200.31V200.974V201.638C127.426 201.638 129.588 200.354 131.532 198.601C133.503 196.823 135.367 194.456 136.795 192.064L136.225 191.723ZM125.411 200.388V201.052C127.296 201.052 129.206 199.731 130.912 197.976C132.649 196.189 134.309 193.81 135.693 191.403L135.118 191.072L134.542 190.741C133.19 193.09 131.593 195.369 129.959 197.05C128.293 198.764 126.719 199.724 125.411 199.724V200.388ZM135.118 191.072L135.694 191.403C136.714 189.625 137.611 187.833 138.255 186.146C138.895 184.466 139.3 182.849 139.3 181.431H138.636H137.971C137.971 182.618 137.627 184.063 137.013 185.673C136.402 187.275 135.541 189.001 134.542 190.741L135.118 191.072ZM138.636 181.431H139.3C139.3 180.241 139.023 179.185 138.323 178.485L137.854 178.955L137.384 179.425C137.727 179.768 137.971 180.405 137.971 181.431H138.636ZM137.854 178.955V178.291H134.662V178.955V179.619H137.854V178.955ZM134.662 178.955L134.317 178.387C132.031 179.773 129.227 183.074 126.935 186.676L127.496 187.033L128.056 187.39C130.324 183.826 132.993 180.743 135.006 179.523L134.662 178.955ZM127.496 187.033L126.931 186.683C125.742 188.598 124.681 190.637 123.915 192.561C123.153 194.473 122.662 196.323 122.662 197.847H123.326H123.991C123.991 196.57 124.412 194.903 125.149 193.052C125.881 191.214 126.904 189.246 128.06 187.383L127.496 187.033ZM123.326 197.847H122.662C122.662 198.679 122.796 199.488 123.249 200.099C123.732 200.752 124.481 201.052 125.411 201.052V200.388V199.724C124.778 199.724 124.484 199.535 124.316 199.308C124.117 199.04 123.991 198.579 123.991 197.847H123.326ZM144.139 184.362L143.589 183.99L143.589 183.991L144.139 184.362ZM147.527 179.346L148.077 179.718L148.295 179.396L148.121 179.049L147.527 179.346ZM147.331 178.955L147.926 178.658L147.742 178.291H147.331V178.955ZM144.595 178.955L143.965 179.165L144.117 179.619H144.595V178.955ZM144.921 178.369V177.704H144.764L144.624 177.775L144.921 178.369ZM152.087 178.369L152.741 178.25L152.641 177.704H152.087V178.369ZM152.217 179.085L152.769 179.456L152.919 179.232L152.871 178.966L152.217 179.085ZM146.354 187.815L145.803 187.444L145.802 187.445L146.354 187.815ZM153.976 188.01L153.413 187.659L153.412 187.659L153.976 188.01ZM159.383 179.346L159.947 179.698L160.144 179.382L159.977 179.049L159.383 179.346ZM159.188 178.955L159.782 178.658L159.598 178.291H159.188V178.955ZM156.712 178.955H156.048V179.619H156.712V178.955ZM157.038 178.369V177.704H156.817L156.639 177.837L157.038 178.369ZM164.139 178.369L164.792 178.25L164.693 177.704H164.139V178.369ZM164.269 179.085L164.83 179.441L164.969 179.222L164.923 178.967L164.269 179.085ZM156.908 190.681L156.347 190.325L156.347 190.325L156.908 190.681ZM163.748 191.398L163.197 191.026L163.197 191.026L163.748 191.398ZM165.507 188.792L165.108 188.261L165.019 188.328L164.956 188.42L165.507 188.792ZM166.158 188.792L166.709 189.164L166.958 188.794L166.711 188.423L166.158 188.792ZM164.399 191.398L163.849 191.026L163.848 191.028L164.399 191.398ZM151.761 192.766L152.418 192.864L152.533 192.102H151.761V192.766ZM151.436 192.766V192.102H151.081L150.884 192.396L151.436 192.766ZM141.924 201.039V200.375C141.249 200.375 140.689 200.112 140.275 199.53C139.84 198.92 139.527 197.903 139.527 196.349H138.863H138.198C138.198 198.052 138.537 199.381 139.193 200.301C139.869 201.25 140.841 201.703 141.924 201.703V201.039ZM138.863 196.349H139.527C139.527 193.444 140.91 190.338 144.69 184.733L144.139 184.362L143.589 183.991C139.811 189.591 138.198 193 138.198 196.349H138.863ZM144.139 184.362L144.69 184.734L148.077 179.718L147.527 179.346L146.976 178.974L143.589 183.99L144.139 184.362ZM147.527 179.346L148.121 179.049L147.926 178.658L147.331 178.955L146.737 179.252L146.933 179.643L147.527 179.346ZM147.331 178.955V178.291H144.595V178.955V179.619H147.331V178.955ZM144.595 178.955L145.225 178.745C145.264 178.86 145.229 178.937 145.221 178.952C145.21 178.972 145.205 178.97 145.218 178.963L144.921 178.369L144.624 177.775C144.18 177.997 143.76 178.55 143.965 179.165L144.595 178.955ZM144.921 178.369V179.033H152.087V178.369V177.704H144.921V178.369ZM152.087 178.369L151.433 178.488L151.564 179.204L152.217 179.085L152.871 178.966L152.741 178.25L152.087 178.369ZM152.217 179.085L151.666 178.715L145.803 187.444L146.354 187.815L146.906 188.185L152.769 179.456L152.217 179.085ZM146.354 187.815L145.802 187.445C143.367 191.081 141.82 193.369 140.887 194.963C139.953 196.558 139.566 197.565 139.566 198.629H140.231H140.895C140.895 197.933 141.127 197.182 142.033 195.634C142.94 194.085 144.455 191.845 146.906 188.184L146.354 187.815ZM140.231 198.629H139.566C139.566 199.299 139.714 199.944 140.143 200.424C140.584 200.917 141.216 201.117 141.924 201.117V200.453V199.789C141.46 199.789 141.245 199.663 141.133 199.538C141.008 199.398 140.895 199.131 140.895 198.629H140.231ZM141.924 200.453V201.117C142.978 201.117 144.029 200.704 145.05 200.036C146.074 199.366 147.11 198.414 148.149 197.267C150.227 194.974 152.386 191.822 154.54 188.361L153.976 188.01L153.412 187.659C151.267 191.104 149.159 194.173 147.165 196.375C146.168 197.476 145.217 198.339 144.323 198.924C143.427 199.51 142.629 199.789 141.924 199.789V200.453ZM153.976 188.01L154.54 188.362L159.947 179.698L159.383 179.346L158.82 178.994L153.413 187.659L153.976 188.01ZM159.383 179.346L159.977 179.049L159.782 178.658L159.188 178.955L158.594 179.252L158.789 179.643L159.383 179.346ZM159.188 178.955V178.291H156.712V178.955V179.619H159.188V178.955ZM156.712 178.955H157.377C157.377 178.943 157.378 178.941 157.377 178.944C157.376 178.948 157.374 178.954 157.372 178.959C157.369 178.964 157.369 178.962 157.377 178.953C157.385 178.943 157.403 178.925 157.437 178.9L157.038 178.369L156.639 177.837C156.445 177.984 156.287 178.157 156.183 178.365C156.078 178.575 156.048 178.78 156.048 178.955H156.712ZM157.038 178.369V179.033H164.139V178.369V177.704H157.038V178.369ZM164.139 178.369L163.485 178.488L163.616 179.204L164.269 179.085L164.923 178.967L164.792 178.25L164.139 178.369ZM164.269 179.085L163.708 178.729L156.347 190.325L156.908 190.681L157.469 191.037L164.83 179.441L164.269 179.085ZM156.908 190.681L156.347 190.325C154.66 192.986 153.569 194.704 152.904 195.925C152.238 197.15 151.944 197.97 151.944 198.824H152.608H153.272C153.272 198.31 153.434 197.73 154.071 196.56C154.709 195.388 155.768 193.718 157.469 191.037L156.908 190.681ZM152.608 198.824H151.944C151.944 199.532 152.143 200.159 152.623 200.6C153.092 201.031 153.721 201.182 154.367 201.182V200.518V199.854C153.906 199.854 153.655 199.745 153.522 199.622C153.399 199.509 153.272 199.289 153.272 198.824H152.608ZM154.367 200.518V201.182C156.151 201.182 157.751 200.079 159.296 198.442C160.854 196.791 162.479 194.466 164.299 191.769L163.748 191.398L163.197 191.026C161.368 193.737 159.802 195.971 158.33 197.53C156.847 199.101 155.58 199.854 154.367 199.854V200.518ZM163.748 191.398L164.299 191.769L166.057 189.164L165.507 188.792L164.956 188.42L163.197 191.026L163.748 191.398ZM165.507 188.792L165.905 189.323C165.959 189.283 165.952 189.31 165.881 189.31C165.842 189.31 165.788 189.301 165.731 189.271C165.673 189.241 165.631 189.199 165.606 189.16L166.158 188.792L166.711 188.423C166.517 188.132 166.207 187.981 165.881 187.981C165.582 187.981 165.316 188.105 165.108 188.261L165.507 188.792ZM166.158 188.792L165.608 188.42L163.849 191.026L164.399 191.398L164.95 191.769L166.709 189.164L166.158 188.792ZM164.399 191.398L163.848 191.028C162.179 193.514 160.58 195.878 158.968 197.625C157.338 199.391 155.83 200.375 154.367 200.375V201.039V201.703C156.422 201.703 158.269 200.342 159.945 198.526C161.639 196.689 163.297 194.232 164.951 191.768L164.399 191.398ZM154.367 201.039V200.375C153.462 200.375 152.951 200.011 152.623 199.439C152.261 198.808 152.1 197.873 152.1 196.74H151.436H150.771C150.771 197.951 150.935 199.166 151.47 200.099C152.037 201.09 152.992 201.703 154.367 201.703V201.039ZM151.436 196.74H152.1C152.1 195.543 152.226 194.144 152.418 192.864L151.761 192.766L151.104 192.667C150.905 193.994 150.771 195.461 150.771 196.74H151.436ZM151.761 192.766V192.102H151.436V192.766V193.43H151.761V192.766ZM151.436 192.766L150.884 192.396C149.37 194.651 147.742 196.673 146.158 198.123C144.548 199.597 143.096 200.375 141.924 200.375V201.039V201.703C143.619 201.703 145.392 200.625 147.055 199.103C148.745 197.556 150.44 195.441 151.987 193.136L151.436 192.766ZM181.969 187.684L181.442 187.28L181.441 187.281L181.969 187.684ZM184.119 184.883L183.592 184.478L183.592 184.479L184.119 184.883ZM172.132 191.463L171.582 191.09L171.575 191.1L171.569 191.111L172.132 191.463ZM171.806 191.984L172.363 192.346L172.369 192.336L171.806 191.984ZM166.269 200.518V201.182H166.63L166.826 200.88L166.269 200.518ZM161.709 200.518L161.147 200.163L160.502 201.182H161.709V200.518ZM171.155 185.6L170.597 185.239L170.593 185.244L171.155 185.6ZM168.614 178.955L167.97 178.794L167.763 179.619H168.614V178.955ZM168.94 178.369V177.704H168.665L168.47 177.899L168.94 178.369ZM174.477 186.512H173.813V187.176H174.477V186.512ZM174.933 186.512V187.176H175.259L175.458 186.918L174.933 186.512ZM185.226 189.769L185.756 190.17L185.756 190.169L185.226 189.769ZM183.206 192.44L182.677 192.039L182.676 192.04L183.206 192.44ZM190.633 191.398L190.082 191.026L190.082 191.026L190.633 191.398ZM192.392 188.792L191.993 188.261L191.904 188.328L191.841 188.42L192.392 188.792ZM193.043 188.792L193.594 189.164L193.843 188.794L193.596 188.423L193.043 188.792ZM191.284 191.398L190.734 191.026L190.733 191.028L191.284 191.398ZM181.122 201.17V200.505C180.146 200.505 179.575 200.068 179.209 199.419C178.817 198.722 178.659 197.763 178.659 196.805H177.995H177.331C177.331 197.866 177.499 199.089 178.051 200.07C178.63 201.098 179.622 201.834 181.122 201.834V201.17ZM177.995 196.805H178.659C178.659 194.285 179.794 191.627 182.497 188.088L181.969 187.684L181.441 187.281C178.671 190.908 177.331 193.853 177.331 196.805H177.995ZM181.969 187.684L182.496 188.089L184.645 185.288L184.119 184.883L183.592 184.479L181.442 187.28L181.969 187.684ZM184.119 184.883L184.645 185.288C185.628 184.011 186.368 182.954 186.865 182.064C187.355 181.184 187.649 180.396 187.649 179.672H186.985H186.321C186.321 180.055 186.159 180.602 185.704 181.416C185.256 182.22 184.564 183.215 183.592 184.478L184.119 184.883ZM186.985 179.672H187.649C187.649 179.225 187.549 178.726 187.17 178.347C186.791 177.969 186.261 177.835 185.682 177.835V178.499V179.163C186.081 179.163 186.201 179.257 186.23 179.286C186.258 179.314 186.321 179.401 186.321 179.672H186.985ZM185.682 178.499V177.835C184.706 177.835 183.676 178.198 182.624 178.816C181.567 179.436 180.446 180.337 179.275 181.475C176.932 183.751 174.33 187.034 171.582 191.09L172.132 191.463L172.682 191.835C175.406 187.814 177.95 184.615 180.2 182.428C181.326 181.335 182.362 180.51 183.296 179.962C184.235 179.41 185.029 179.163 185.682 179.163V178.499ZM172.132 191.463L171.569 191.111L171.243 191.632L171.806 191.984L172.369 192.336L172.695 191.815L172.132 191.463ZM171.806 191.984L171.249 191.622L165.712 200.157L166.269 200.518L166.826 200.88L172.363 192.346L171.806 191.984ZM166.269 200.518V199.854H161.709V200.518V201.182H166.269V200.518ZM161.709 200.518L162.27 200.873L171.716 185.955L171.155 185.6L170.593 185.244L161.147 200.163L161.709 200.518ZM171.155 185.6L171.712 185.961C172.432 184.849 173.021 183.875 173.431 183.021C173.837 182.175 174.099 181.383 174.099 180.649H173.435H172.77C172.77 181.087 172.609 181.663 172.233 182.446C171.862 183.22 171.311 184.136 170.597 185.239L171.155 185.6ZM173.435 180.649H174.099C174.099 180.022 173.972 179.359 173.432 178.887C172.92 178.438 172.177 178.291 171.285 178.291V178.955V179.619C172.087 179.619 172.418 179.765 172.558 179.887C172.669 179.984 172.77 180.169 172.77 180.649H173.435ZM171.285 178.955V178.291H168.614V178.955V179.619H171.285V178.955ZM168.614 178.955L169.258 179.116C169.292 178.984 169.356 178.892 169.409 178.838L168.94 178.369L168.47 177.899C168.263 178.106 168.067 178.405 167.97 178.794L168.614 178.955ZM168.94 178.369V179.033H171.546V178.369V177.704H168.94V178.369ZM171.546 178.369V179.033C172.47 179.033 172.977 179.243 173.277 179.572C173.591 179.919 173.813 180.545 173.813 181.691H174.477H175.141C175.141 180.427 174.907 179.392 174.26 178.68C173.599 177.951 172.641 177.704 171.546 177.704V178.369ZM174.477 181.691H173.813V186.512H174.477H175.141V181.691H174.477ZM174.477 186.512V187.176H174.933V186.512V185.848H174.477V186.512ZM174.933 186.512L175.458 186.918C177.56 184.202 179.528 182.064 181.313 180.61C183.116 179.143 184.643 178.447 185.877 178.447V177.782V177.118C184.18 177.118 182.353 178.051 180.474 179.58C178.579 181.123 176.54 183.349 174.408 186.105L174.933 186.512ZM185.877 177.782V178.447C186.628 178.447 187.074 178.737 187.374 179.244C187.707 179.808 187.884 180.69 187.884 181.887H188.548H189.213C189.213 180.607 189.031 179.438 188.518 178.568C187.97 177.642 187.081 177.118 185.877 177.118V177.782ZM188.548 181.887H187.884C187.884 184.162 187.256 185.977 184.696 189.369L185.226 189.769L185.756 190.169C188.408 186.656 189.213 184.562 189.213 181.887H188.548ZM185.226 189.769L184.696 189.369L182.677 192.039L183.206 192.44L183.736 192.841L185.756 190.17L185.226 189.769ZM183.206 192.44L182.676 192.04C181.275 193.897 180.309 195.261 179.692 196.325C179.079 197.384 178.764 198.224 178.764 199.02H179.428H180.092C180.092 198.577 180.266 197.985 180.842 196.991C181.414 196.003 182.336 194.696 183.737 192.84L183.206 192.44ZM179.428 199.02H178.764C178.764 199.683 178.976 200.285 179.443 200.714C179.902 201.136 180.522 201.313 181.187 201.313V200.648V199.984C180.745 199.984 180.485 199.868 180.342 199.736C180.206 199.611 180.092 199.399 180.092 199.02H179.428ZM181.187 200.648V201.313C183.039 201.313 184.655 200.173 186.202 198.502C187.758 196.82 189.368 194.46 191.184 191.769L190.633 191.398L190.082 191.026C188.25 193.742 186.7 196.008 185.227 197.6C183.745 199.202 182.462 199.984 181.187 199.984V200.648ZM190.633 191.398L191.184 191.769L192.943 189.164L192.392 188.792L191.841 188.42L190.082 191.026L190.633 191.398ZM192.392 188.792L192.791 189.323C192.844 189.283 192.837 189.31 192.767 189.31C192.727 189.31 192.673 189.301 192.616 189.271C192.558 189.241 192.516 189.199 192.491 189.16L193.043 188.792L193.596 188.423C193.402 188.132 193.092 187.981 192.767 187.981C192.468 187.981 192.201 188.105 191.993 188.261L192.392 188.792ZM193.043 188.792L192.493 188.42L190.734 191.026L191.284 191.398L191.835 191.769L193.594 189.164L193.043 188.792ZM191.284 191.398L190.733 191.028C189.064 193.515 187.448 195.911 185.812 197.691C184.156 199.491 182.616 200.505 181.122 200.505V201.17V201.834C183.211 201.834 185.09 200.438 186.79 198.59C188.509 196.721 190.183 194.232 191.836 191.768L191.284 191.398ZM204.183 192.049L204.819 192.24L205.075 191.385H204.183V192.049ZM203.792 192.049V191.385H203.438L203.241 191.678L203.792 192.049ZM193.499 186.707L194.058 187.066L194.059 187.065L193.499 186.707ZM211.935 178.108L211.783 178.755L212.245 178.864L212.498 178.461L211.935 178.108ZM225.55 156.415L226.113 156.768L226.751 155.751H225.55V156.415ZM214.606 156.415L214.036 156.073L213.433 157.079H214.606V156.415ZM214.997 155.763V155.099H214.621L214.427 155.422L214.997 155.763ZM231.609 152.832V152.168H231.273L231.074 152.438L231.609 152.832ZM232.456 152.832L233.019 153.184L233.656 152.168H232.456V152.832ZM210.502 187.88L209.939 187.527L209.937 187.53L210.502 187.88ZM216.43 191.984L215.879 191.613L215.878 191.614L216.43 191.984ZM218.58 188.792L218.283 188.198L218.126 188.276L218.029 188.421L218.58 188.792ZM219.231 188.792L219.782 189.163L220.088 188.709L219.701 188.322L219.231 188.792ZM216.951 192.179L217.502 192.551L217.502 192.55L216.951 192.179ZM203.662 191.072L204.22 191.432L204.22 191.431L203.662 191.072ZM208.222 183.971L208.781 184.33L208.784 184.325L208.222 183.971ZM211.414 178.89L211.976 179.243L212.337 178.669L211.756 178.32L211.414 178.89ZM197.603 187.359L198.153 187.731L198.156 187.727L197.603 187.359ZM207.049 200.974V200.31C206.052 200.31 205.428 199.938 205.014 199.278C204.567 198.564 204.326 197.443 204.326 195.893H203.662H202.997C202.997 197.534 203.244 198.955 203.888 199.983C204.566 201.066 205.636 201.638 207.049 201.638V200.974ZM203.662 195.893H204.326C204.326 194.701 204.451 193.465 204.819 192.24L204.183 192.049L203.546 191.858C203.132 193.239 202.997 194.609 202.997 195.893H203.662ZM204.183 192.049V191.385H203.792V192.049V192.713H204.183V192.049ZM203.792 192.049L203.241 191.678C201.162 194.764 199.433 197.015 197.935 198.489C196.421 199.979 195.248 200.57 194.281 200.57V201.235V201.899C195.788 201.899 197.287 200.992 198.867 199.436C200.463 197.865 202.252 195.523 204.343 192.42L203.792 192.049ZM194.281 201.235V200.57C193.419 200.57 192.696 200.07 192.154 199.122C191.607 198.165 191.297 196.82 191.297 195.372H190.633H189.968C189.968 196.985 190.31 198.572 191 199.781C191.696 200.999 192.797 201.899 194.281 201.899V201.235ZM190.633 195.372H191.297C191.297 192.544 192.471 189.542 194.058 187.066L193.499 186.707L192.94 186.349C191.269 188.954 189.968 192.206 189.968 195.372H190.633ZM193.499 186.707L194.059 187.065C197.409 181.818 202.881 178.447 208.743 178.447V177.782V177.118C202.358 177.118 196.494 180.783 192.939 186.35L193.499 186.707ZM208.743 177.782V178.447C209.884 178.447 210.742 178.51 211.783 178.755L211.935 178.108L212.087 177.462C210.914 177.185 209.947 177.118 208.743 177.118V177.782ZM211.935 178.108L212.498 178.461L226.113 156.768L225.55 156.415L224.988 156.062L211.372 177.755L211.935 178.108ZM225.55 156.415V155.751H214.606V156.415V157.079H225.55V156.415ZM214.606 156.415L215.176 156.757L215.566 156.105L214.997 155.763L214.427 155.422L214.036 156.073L214.606 156.415ZM214.997 155.763V156.428H224.964V155.763V155.099H214.997V155.763ZM224.964 155.763V156.428C227.962 156.428 230.349 155.666 232.144 153.225L231.609 152.832L231.074 152.438C229.611 154.427 227.699 155.099 224.964 155.099V155.763ZM231.609 152.832V153.496H232.456V152.832V152.168H231.609V152.832ZM232.456 152.832L231.893 152.479L209.939 187.527L210.502 187.88L211.065 188.233L233.019 153.184L232.456 152.832ZM210.502 187.88L209.937 187.53C208.35 190.09 206.998 192.215 206.05 193.964C205.114 195.689 204.496 197.174 204.496 198.433H205.16H205.824C205.824 197.543 206.281 196.324 207.218 194.597C208.142 192.893 209.462 190.817 211.066 188.23L210.502 187.88ZM205.16 198.433H204.496C204.496 199.112 204.616 199.807 205.058 200.334C205.52 200.886 206.214 201.117 207.049 201.117V200.453V199.789C206.451 199.789 206.2 199.629 206.076 199.481C205.931 199.308 205.824 198.993 205.824 198.433H205.16ZM207.049 200.453V201.117C208.84 201.117 210.514 200.092 212.104 198.552C213.704 197.003 215.316 194.837 216.982 192.354L216.43 191.984L215.878 191.614C214.222 194.082 212.674 196.151 211.18 197.598C209.675 199.055 208.32 199.789 207.049 199.789V200.453ZM216.43 191.984L216.981 192.355L219.131 189.163L218.58 188.792L218.029 188.421L215.879 191.613L216.43 191.984ZM218.58 188.792L218.877 189.386C218.933 189.358 218.962 189.358 218.954 189.358C218.952 189.358 218.857 189.358 218.762 189.262L219.231 188.792L219.701 188.322C219.475 188.096 219.185 188.03 218.954 188.03C218.719 188.03 218.488 188.095 218.283 188.198L218.58 188.792ZM219.231 188.792L218.68 188.421L216.4 191.809L216.951 192.179L217.502 192.55L219.782 189.163L219.231 188.792ZM216.951 192.179L216.401 191.808C214.773 194.217 213.209 196.365 211.633 197.91C210.049 199.462 208.548 200.31 207.049 200.31V200.974V201.638C209.068 201.638 210.889 200.499 212.563 198.859C214.244 197.212 215.872 194.963 217.502 192.551L216.951 192.179ZM192.717 198.629H192.053C192.053 199.358 192.245 200.029 192.664 200.529C193.094 201.043 193.71 201.313 194.411 201.313V200.648V199.984C194.069 199.984 193.839 199.863 193.683 199.676C193.515 199.476 193.381 199.137 193.381 198.629H192.717ZM194.411 200.648V201.313C195.747 201.313 197.171 200.375 198.707 198.79C200.275 197.171 202.095 194.734 204.22 191.432L203.662 191.072L203.103 190.713C200.994 193.99 199.23 196.341 197.753 197.865C196.243 199.423 195.159 199.984 194.411 199.984V200.648ZM203.662 191.072L204.22 191.431L208.781 184.33L208.222 183.971L207.663 183.612L203.103 190.713L203.662 191.072ZM208.222 183.971L208.784 184.325L211.976 179.243L211.414 178.89L210.851 178.537L207.659 183.618L208.222 183.971ZM211.414 178.89L211.756 178.32C210.964 177.845 209.984 177.639 208.743 177.639V178.304V178.968C209.847 178.968 210.561 179.153 211.072 179.459L211.414 178.89ZM208.743 178.304V177.639C206.393 177.639 204.403 178.574 202.54 180.206C200.694 181.823 198.944 184.15 197.05 186.99L197.603 187.359L198.156 187.727C200.041 184.9 201.71 182.699 203.415 181.205C205.102 179.727 206.793 178.968 208.743 178.968V178.304ZM197.603 187.359L197.053 186.986C195.603 189.129 194.36 191.314 193.478 193.312C192.602 195.293 192.053 197.154 192.053 198.629H192.717H193.381C193.381 197.433 193.842 195.776 194.693 193.848C195.537 191.938 196.737 189.823 198.153 187.731L197.603 187.359Z" fill="black" mask="url(#path-5-outside-2_3733_333)"/>
<mask id="path-7-outside-3_3733_333" maskUnits="userSpaceOnUse" x="178.035" y="178.501" width="64" height="72" fill="black">
<rect fill="white" x="178.035" y="178.501" width="64" height="72"/>
<path d="M191.879 227.957C188.817 227.957 187.644 224.374 187.644 221.833C187.644 212.648 195.397 204.765 202.172 204.765H202.302C203.149 204.765 203.865 204.961 204.387 205.286L204.582 205.352H212.204C212.269 205.547 212.334 205.743 212.009 205.938H205.103C205.624 206.655 205.885 207.697 205.885 209C205.885 211.801 204.712 215.319 202.693 218.706C199.892 223.397 195.397 227.957 191.879 227.957ZM191.879 227.371C195.071 227.371 198.849 222.811 201.585 218.055C203.605 214.537 205.103 211.019 205.103 208.413C205.103 207.306 204.843 206.459 204.321 205.938H201.129C198.98 207.241 196.243 210.433 193.963 214.016C191.618 217.794 189.794 222.029 189.794 224.83C189.794 226.394 190.315 227.371 191.879 227.371ZM180.504 247.631C182.719 247.891 183.5 248.022 185.585 248.022C190.666 248.022 191.578 247.045 201.48 230.367L216.008 205.938H210.471C210.536 205.743 210.601 205.547 210.796 205.352H216.399L221.415 196.883C229.167 183.919 234.835 179.359 238.418 179.359C239.981 179.359 240.568 180.466 240.568 181.639C240.568 186.004 234.835 194.147 220.503 205.352H229.428C229.428 205.547 229.297 205.743 229.102 205.938H228.776C220.177 205.938 217.376 211.801 213.337 218.641L208.451 226.85C203.174 235.709 197.572 244.048 190.015 247.826C186.758 249.39 183.435 249.65 179.266 249.65L180.504 247.631ZM215.552 213.56H215.747C218.223 209.782 220.698 207.045 224.737 205.938H220.112L215.552 213.56ZM221.154 204.244C234.77 193.365 239.981 185.092 239.981 181.443C239.981 180.401 239.46 179.88 238.548 179.88C235.747 179.88 232.685 184.961 225.324 197.274L221.154 204.244Z"/>
</mask>
<path d="M191.879 227.957C188.817 227.957 187.644 224.374 187.644 221.833C187.644 212.648 195.397 204.765 202.172 204.765H202.302C203.149 204.765 203.865 204.961 204.387 205.286L204.582 205.352H212.204C212.269 205.547 212.334 205.743 212.009 205.938H205.103C205.624 206.655 205.885 207.697 205.885 209C205.885 211.801 204.712 215.319 202.693 218.706C199.892 223.397 195.397 227.957 191.879 227.957ZM191.879 227.371C195.071 227.371 198.849 222.811 201.585 218.055C203.605 214.537 205.103 211.019 205.103 208.413C205.103 207.306 204.843 206.459 204.321 205.938H201.129C198.98 207.241 196.243 210.433 193.963 214.016C191.618 217.794 189.794 222.029 189.794 224.83C189.794 226.394 190.315 227.371 191.879 227.371ZM180.504 247.631C182.719 247.891 183.5 248.022 185.585 248.022C190.666 248.022 191.578 247.045 201.48 230.367L216.008 205.938H210.471C210.536 205.743 210.601 205.547 210.796 205.352H216.399L221.415 196.883C229.167 183.919 234.835 179.359 238.418 179.359C239.981 179.359 240.568 180.466 240.568 181.639C240.568 186.004 234.835 194.147 220.503 205.352H229.428C229.428 205.547 229.297 205.743 229.102 205.938H228.776C220.177 205.938 217.376 211.801 213.337 218.641L208.451 226.85C203.174 235.709 197.572 244.048 190.015 247.826C186.758 249.39 183.435 249.65 179.266 249.65L180.504 247.631ZM215.552 213.56H215.747C218.223 209.782 220.698 207.045 224.737 205.938H220.112L215.552 213.56ZM221.154 204.244C234.77 193.365 239.981 185.092 239.981 181.443C239.981 180.401 239.46 179.88 238.548 179.88C235.747 179.88 232.685 184.961 225.324 197.274L221.154 204.244Z" fill="black"/>
<path d="M204.387 205.286L204.035 205.85L204.102 205.892L204.177 205.917L204.387 205.286ZM204.582 205.352L204.372 205.982L204.474 206.016H204.582V205.352ZM212.204 205.352L212.834 205.142L212.683 204.687H212.204V205.352ZM212.009 205.938V206.602H212.193L212.35 206.508L212.009 205.938ZM205.103 205.938V205.274H203.799L204.566 206.329L205.103 205.938ZM202.693 218.706L203.263 219.047L203.263 219.047L202.693 218.706ZM201.585 218.055L202.161 218.386L202.161 218.386L201.585 218.055ZM204.321 205.938L204.791 205.468L204.597 205.274H204.321V205.938ZM201.129 205.938V205.274H200.944L200.785 205.37L201.129 205.938ZM193.963 214.016L193.403 213.659L193.399 213.666L193.963 214.016ZM191.879 227.957V227.293C190.662 227.293 189.793 226.6 189.194 225.525C188.585 224.433 188.309 223.02 188.309 221.833H187.644H186.98C186.98 223.187 187.289 224.836 188.033 226.171C188.786 227.522 190.034 228.621 191.879 228.621V227.957ZM187.644 221.833H188.309C188.309 217.426 190.17 213.312 192.863 210.297C195.565 207.271 199.03 205.43 202.172 205.43V204.765V204.101C198.538 204.101 194.739 206.201 191.872 209.412C188.994 212.635 186.98 217.055 186.98 221.833H187.644ZM202.172 204.765V205.43H202.302V204.765V204.101H202.172V204.765ZM202.302 204.765V205.43C203.052 205.43 203.64 205.603 204.035 205.85L204.387 205.286L204.739 204.723C204.09 204.318 203.245 204.101 202.302 204.101V204.765ZM204.387 205.286L204.177 205.917L204.372 205.982L204.582 205.352L204.792 204.721L204.597 204.656L204.387 205.286ZM204.582 205.352V206.016H212.204V205.352V204.687H204.582V205.352ZM212.204 205.352L211.574 205.562C211.582 205.588 211.588 205.603 211.592 205.617C211.596 205.63 211.597 205.635 211.596 205.634C211.596 205.633 211.588 205.594 211.598 205.536C211.609 205.47 211.636 205.416 211.665 205.379C211.689 205.349 211.7 205.348 211.667 205.368L212.009 205.938L212.35 206.508C212.615 206.349 212.849 206.107 212.908 205.754C212.956 205.465 212.855 205.204 212.834 205.142L212.204 205.352ZM212.009 205.938V205.274H205.103V205.938V206.602H212.009V205.938ZM205.103 205.938L204.566 206.329C204.972 206.887 205.221 207.77 205.221 209H205.885H206.549C206.549 207.624 206.276 206.422 205.64 205.547L205.103 205.938ZM205.885 209H205.221C205.221 211.64 204.106 215.039 202.122 218.366L202.693 218.706L203.263 219.047C205.319 215.599 206.549 211.963 206.549 209H205.885ZM202.693 218.706L202.123 218.366C200.75 220.664 198.966 222.923 197.11 224.597C195.226 226.297 193.381 227.293 191.879 227.293V227.957V228.621C193.894 228.621 196.056 227.337 197.999 225.584C199.97 223.806 201.835 221.439 203.263 219.047L202.693 218.706ZM191.879 227.371V228.035C193.763 228.035 195.674 226.714 197.379 224.959C199.116 223.172 200.777 220.793 202.161 218.386L201.585 218.055L201.01 217.724C199.658 220.073 198.061 222.352 196.427 224.033C194.761 225.747 193.186 226.706 191.879 226.706V227.371ZM201.585 218.055L202.161 218.386C203.182 216.608 204.079 214.816 204.722 213.129C205.363 211.449 205.767 209.831 205.767 208.413H205.103H204.439C204.439 209.601 204.095 211.046 203.481 212.656C202.87 214.258 202.008 215.984 201.009 217.724L201.585 218.055ZM205.103 208.413H205.767C205.767 207.224 205.49 206.168 204.791 205.468L204.321 205.938L203.852 206.408C204.195 206.751 204.439 207.388 204.439 208.413H205.103ZM204.321 205.938V205.274H201.129V205.938V206.602H204.321V205.938ZM201.129 205.938L200.785 205.37C198.499 206.756 195.695 210.057 193.403 213.659L193.963 214.016L194.524 214.373C196.792 210.809 199.46 207.726 201.474 206.506L201.129 205.938ZM193.963 214.016L193.399 213.666C192.21 215.581 191.148 217.62 190.382 219.544C189.621 221.455 189.13 223.306 189.13 224.83H189.794H190.458C190.458 223.553 190.879 221.886 191.616 220.035C192.348 218.197 193.372 216.229 194.528 214.366L193.963 214.016ZM189.794 224.83H189.13C189.13 225.662 189.264 226.471 189.716 227.082C190.2 227.735 190.948 228.035 191.879 228.035V227.371V226.706C191.246 226.706 190.952 226.518 190.784 226.291C190.585 226.023 190.458 225.562 190.458 224.83H189.794ZM180.504 247.631L180.581 246.971L180.159 246.921L179.937 247.284L180.504 247.631ZM201.48 230.367L200.91 230.028L200.909 230.028L201.48 230.367ZM216.008 205.938L216.579 206.277L217.176 205.274H216.008V205.938ZM210.471 205.938L209.84 205.728L209.549 206.602H210.471V205.938ZM210.796 205.352V204.687H210.521L210.327 204.882L210.796 205.352ZM216.399 205.352V206.016H216.777L216.97 205.69L216.399 205.352ZM221.415 196.883L220.845 196.542L220.843 196.544L221.415 196.883ZM220.503 205.352L220.094 204.828L218.575 206.016H220.503V205.352ZM229.428 205.352H230.092V204.687H229.428V205.352ZM229.102 205.938V206.602H229.377L229.572 206.408L229.102 205.938ZM213.337 218.641L213.908 218.981L213.909 218.979L213.337 218.641ZM208.451 226.85L209.022 227.189L209.022 227.189L208.451 226.85ZM190.015 247.826L190.302 248.425L190.312 248.42L190.015 247.826ZM179.266 249.65L178.7 249.303L178.08 250.315H179.266V249.65ZM215.552 213.56L214.982 213.219L214.38 214.224H215.552V213.56ZM215.747 213.56V214.224H216.106L216.303 213.924L215.747 213.56ZM224.737 205.938L224.913 206.579L224.737 205.274V205.938ZM220.112 205.938V205.274H219.735L219.542 205.597L220.112 205.938ZM221.154 204.244L220.584 203.903L221.569 204.763L221.154 204.244ZM225.324 197.274L225.894 197.615L225.894 197.615L225.324 197.274ZM180.504 247.631L180.426 248.291C182.634 248.55 183.455 248.686 185.585 248.686V248.022V247.357C183.546 247.357 182.804 247.233 180.581 246.971L180.504 247.631ZM185.585 248.022V248.686C186.864 248.686 187.976 248.628 189.05 248.232C190.137 247.831 191.122 247.109 192.218 245.893C194.375 243.503 197.118 239.015 202.052 230.706L201.48 230.367L200.909 230.028C195.941 238.397 193.277 242.736 191.232 245.004C190.227 246.117 189.413 246.682 188.59 246.985C187.754 247.294 186.847 247.357 185.585 247.357V248.022ZM201.48 230.367L202.051 230.707L216.579 206.277L216.008 205.938L215.437 205.598L200.91 230.028L201.48 230.367ZM216.008 205.938V205.274H210.471V205.938V206.602H216.008V205.938ZM210.471 205.938L211.101 206.148C211.135 206.045 211.154 205.991 211.179 205.942C211.199 205.901 211.224 205.863 211.266 205.821L210.796 205.352L210.327 204.882C210.011 205.197 209.907 205.527 209.84 205.728L210.471 205.938ZM210.796 205.352V206.016H216.399V205.352V204.687H210.796V205.352ZM216.399 205.352L216.97 205.69L221.986 197.221L221.415 196.883L220.843 196.544L215.827 205.013L216.399 205.352ZM221.415 196.883L221.985 197.224C225.846 190.767 229.167 186.44 231.943 183.735C234.741 181.01 236.892 180.023 238.418 180.023V179.359V178.694C236.36 178.694 233.886 179.988 231.016 182.783C228.125 185.6 224.736 190.034 220.845 196.542L221.415 196.883ZM238.418 179.359V180.023C239.027 180.023 239.363 180.229 239.562 180.476C239.78 180.746 239.903 181.152 239.903 181.639H240.568H241.232C241.232 180.953 241.062 180.219 240.596 179.642C240.111 179.042 239.372 178.694 238.418 178.694V179.359ZM240.568 181.639H239.903C239.903 183.578 238.602 186.55 235.393 190.512C232.211 194.442 227.236 199.244 220.094 204.828L220.503 205.352L220.912 205.875C228.102 200.254 233.159 195.382 236.426 191.348C239.667 187.346 241.232 184.064 241.232 181.639H240.568ZM220.503 205.352V206.016H229.428V205.352V204.687H220.503V205.352ZM229.428 205.352H228.764C228.764 205.299 228.781 205.281 228.764 205.31C228.747 205.341 228.707 205.393 228.632 205.468L229.102 205.938L229.572 206.408C229.785 206.194 230.092 205.831 230.092 205.352H229.428ZM229.102 205.938V205.274H228.776V205.938V206.602H229.102V205.938ZM228.776 205.938V205.274C224.292 205.274 221.273 206.816 218.873 209.259C216.52 211.654 214.759 214.927 212.765 218.304L213.337 218.641L213.909 218.979C215.954 215.515 217.613 212.437 219.82 210.19C221.98 207.991 224.662 206.602 228.776 206.602V205.938ZM213.337 218.641L212.766 218.301L207.88 226.51L208.451 226.85L209.022 227.189L213.908 218.981L213.337 218.641ZM208.451 226.85L207.88 226.51C202.59 235.392 197.075 243.553 189.718 247.232L190.015 247.826L190.312 248.42C198.068 244.542 203.758 236.027 209.022 227.189L208.451 226.85ZM190.015 247.826L189.728 247.227C186.612 248.723 183.417 248.986 179.266 248.986V249.65V250.315C183.453 250.315 186.903 250.057 190.302 248.425L190.015 247.826ZM179.266 249.65L179.832 249.997L181.07 247.978L180.504 247.631L179.937 247.284L178.7 249.303L179.266 249.65ZM215.552 213.56V214.224H215.747V213.56V212.896H215.552V213.56ZM215.747 213.56L216.303 213.924C218.752 210.186 221.113 207.621 224.913 206.579L224.737 205.938L224.562 205.297C220.284 206.47 217.694 209.377 215.192 213.196L215.747 213.56ZM224.737 205.938V205.274H220.112V205.938V206.602H224.737V205.938ZM220.112 205.938L219.542 205.597L214.982 213.219L215.552 213.56L216.122 213.901L220.682 206.279L220.112 205.938ZM221.154 204.244L221.569 204.763C228.406 199.3 233.153 194.475 236.199 190.539C237.721 188.57 238.826 186.814 239.553 185.303C240.275 183.802 240.646 182.497 240.646 181.443H239.981H239.317C239.317 182.214 239.037 183.311 238.356 184.727C237.68 186.133 236.63 187.81 235.148 189.726C232.184 193.557 227.518 198.309 220.74 203.725L221.154 204.244ZM239.981 181.443H240.646C240.646 180.82 240.489 180.241 240.091 179.816C239.687 179.385 239.13 179.216 238.548 179.216V179.88V180.544C238.878 180.544 239.038 180.636 239.122 180.725C239.213 180.822 239.317 181.025 239.317 181.443H239.981ZM238.548 179.88V179.216C237.632 179.216 236.769 179.634 235.908 180.358C235.05 181.079 234.137 182.151 233.108 183.57C231.051 186.409 228.427 190.789 224.753 196.933L225.324 197.274L225.894 197.615C229.582 191.446 232.17 187.129 234.184 184.349C235.191 182.959 236.029 181.991 236.762 181.375C237.494 180.761 238.063 180.544 238.548 180.544V179.88ZM225.324 197.274L224.754 196.933L220.584 203.903L221.154 204.244L221.724 204.585L225.894 197.615L225.324 197.274Z" fill="black" mask="url(#path-7-outside-3_3733_333)"/>
</svg>
