<svg width="295" height="283" viewBox="0 0 295 283" fill="none" xmlns="http://www.w3.org/2000/svg">
<path d="M145.827 2.29504L144.822 1.1815L144.822 1.18158L145.827 2.29504ZM149.387 2.29504L150.392 1.18157L150.392 1.18152L149.387 2.29504ZM222.667 68.4406L221.661 69.554L224.167 71.8152V68.4406H222.667ZM222.667 48.5138L221.167 48.5137V48.5138H222.667ZM264.514 48.5138L266.014 48.5138L266.014 48.5137L264.514 48.5138ZM264.514 106.215H263.014V106.882L263.509 107.328L264.514 106.215ZM292.598 131.566L293.603 130.452L293.603 130.452L292.598 131.566ZM290.818 136.194L290.818 137.694L290.818 137.694L290.818 136.194ZM264.647 136.194V134.694H263.147V136.194H264.647ZM32.5366 281L32.5365 282.5H32.5366V281ZM29.8804 136.194H31.3804V134.694H29.8804V136.194ZM4.396 136.194L4.39596 137.694H4.396V136.194ZM2.61572 131.566L1.61064 130.452L1.61055 130.452L2.61572 131.566ZM145.827 2.29504L146.832 3.40858C147.272 3.01112 147.942 3.01113 148.382 3.40857L149.387 2.29504L150.392 1.18152C148.81 -0.246542 146.404 -0.246498 144.822 1.1815L145.827 2.29504ZM149.387 2.29504L148.382 3.40852L221.661 69.554L222.667 68.4406L223.672 67.3271L150.392 1.18157L149.387 2.29504ZM222.667 68.4406H224.167V48.5138H222.667H221.167V68.4406H222.667ZM222.667 48.5138L224.167 48.5139C224.167 47.8748 224.685 47.3566 225.324 47.3566V45.8566V44.3566C223.028 44.3566 221.167 46.2181 221.167 48.5137L222.667 48.5138ZM225.324 45.8566V47.3566H261.857V45.8566V44.3566H225.324V45.8566ZM261.857 45.8566V47.3566C262.496 47.3566 263.014 47.8748 263.014 48.5139L264.514 48.5138L266.014 48.5137C266.014 46.2181 264.153 44.3566 261.857 44.3566V45.8566ZM264.514 48.5138H263.014V106.215H264.514H266.014V48.5138H264.514ZM264.514 106.215L263.509 107.328L291.593 132.679L292.598 131.566L293.603 130.452L265.519 105.102L264.514 106.215ZM292.598 131.566L291.593 132.679C292.379 133.389 291.877 134.694 290.818 134.694L290.818 136.194L290.818 137.694C294.624 137.694 296.428 133.003 293.603 130.452L292.598 131.566ZM290.818 136.194V134.694H264.647V136.194V137.694H290.818V136.194ZM264.647 136.194H263.147V278.343H264.647H266.147V136.194H264.647ZM264.647 278.343H263.147C263.147 278.982 262.629 279.5 261.99 279.5V281V282.5C264.286 282.5 266.147 280.639 266.147 278.343H264.647ZM261.99 281V279.5H32.5366V281V282.5H261.99V281ZM32.5366 281L32.5368 279.5C31.8984 279.5 31.3804 278.982 31.3804 278.343H29.8804H28.3804C28.3804 280.638 30.2403 282.5 32.5365 282.5L32.5366 281ZM29.8804 278.343H31.3804V136.194H29.8804H28.3804V278.343H29.8804ZM29.8804 136.194V134.694H4.396V136.194V137.694H29.8804V136.194ZM4.396 136.194L4.39603 134.694C3.33667 134.694 2.83445 133.389 3.6209 132.679L2.61572 131.566L1.61055 130.452C-1.21479 133.003 0.589229 137.694 4.39596 137.694L4.396 136.194ZM2.61572 131.566L3.6208 132.679L146.832 3.40851L145.827 2.29504L144.822 1.18158L1.61064 130.452L2.61572 131.566Z" fill="white"/>
<mask id="path-2-outside-1_3728_241" maskUnits="userSpaceOnUse" x="52.3057" y="111.311" width="81" height="54" fill="black">
<rect fill="white" x="52.3057" y="111.311" width="81" height="54"/>
<path d="M71.0836 137.969C65.8069 135.95 62.289 130.022 62.289 124.289C62.289 118.426 66.328 112.758 76.4907 112.758C91.2135 112.758 102.158 120.38 116.815 120.38C120.268 120.38 123.786 119.664 126.066 117.514L126.457 118.035C124.047 120.315 120.268 121.032 116.815 121.032H115.447L96.6857 150.412H97.0114C101.572 144.288 105.676 140.575 108.803 140.575C110.757 140.575 111.474 142.204 111.474 144.679C111.474 147.155 110.757 149.109 108.151 152.562L106.132 155.233C103.33 158.946 102.353 160.575 102.353 161.812C102.353 162.855 103.005 163.441 104.112 163.441C107.239 163.441 109.91 159.597 113.558 154.19L115.317 151.585C115.578 151.389 115.838 151.389 115.969 151.585L114.21 154.19C110.887 159.141 107.63 163.962 104.047 163.962C101.572 163.962 100.92 161.617 100.92 159.597C100.92 156.861 102.158 154.06 104.894 150.477L107.044 147.676C108.998 145.135 109.91 143.572 109.91 142.464C109.91 141.748 109.584 141.292 108.607 141.292C105.155 141.292 100.008 146.764 94.145 155.624L89.3243 163.311H84.3732L111.083 120.641C106.457 120.054 102.158 118.882 97.8583 117.644L71.2139 160.314L66.8492 162.659H79.9434L79.6176 163.311H53.5596L53.8202 162.659H64.3737L93.3633 116.276C88.0214 114.778 82.5492 113.41 76.4907 113.41C66.7189 113.41 62.9405 118.686 62.9405 124.289C62.9405 129.631 66.3932 135.233 71.4745 137.057L71.0836 137.969ZM119.044 163.832C115.917 163.832 114.158 160.77 114.158 157.252C114.158 154.581 114.94 151.715 116.633 148.979C119.76 143.897 125.363 140.575 128.815 140.575C130.509 140.575 131.096 141.552 131.096 142.595C131.096 143.963 130.053 145.461 128.49 146.894C126.275 148.849 122.822 150.412 119.891 151.259C118.262 154.19 116.698 157.708 116.698 160.379C116.698 162.073 117.35 163.18 119.239 163.18C122.562 163.18 126.34 160.184 131.812 151.585C132.073 151.324 132.464 151.324 132.464 151.585C126.731 160.64 122.692 163.832 119.044 163.832ZM120.151 150.673C122.887 149.761 126.014 148.197 128.034 146.373C129.532 145.005 130.509 143.572 130.509 142.399C130.509 141.617 130.118 141.096 129.206 141.096C126.991 141.096 123.799 144.484 120.607 149.956L120.151 150.673Z"/>
</mask>
<path d="M71.0836 137.969C65.8069 135.95 62.289 130.022 62.289 124.289C62.289 118.426 66.328 112.758 76.4907 112.758C91.2135 112.758 102.158 120.38 116.815 120.38C120.268 120.38 123.786 119.664 126.066 117.514L126.457 118.035C124.047 120.315 120.268 121.032 116.815 121.032H115.447L96.6857 150.412H97.0114C101.572 144.288 105.676 140.575 108.803 140.575C110.757 140.575 111.474 142.204 111.474 144.679C111.474 147.155 110.757 149.109 108.151 152.562L106.132 155.233C103.33 158.946 102.353 160.575 102.353 161.812C102.353 162.855 103.005 163.441 104.112 163.441C107.239 163.441 109.91 159.597 113.558 154.19L115.317 151.585C115.578 151.389 115.838 151.389 115.969 151.585L114.21 154.19C110.887 159.141 107.63 163.962 104.047 163.962C101.572 163.962 100.92 161.617 100.92 159.597C100.92 156.861 102.158 154.06 104.894 150.477L107.044 147.676C108.998 145.135 109.91 143.572 109.91 142.464C109.91 141.748 109.584 141.292 108.607 141.292C105.155 141.292 100.008 146.764 94.145 155.624L89.3243 163.311H84.3732L111.083 120.641C106.457 120.054 102.158 118.882 97.8583 117.644L71.2139 160.314L66.8492 162.659H79.9434L79.6176 163.311H53.5596L53.8202 162.659H64.3737L93.3633 116.276C88.0214 114.778 82.5492 113.41 76.4907 113.41C66.7189 113.41 62.9405 118.686 62.9405 124.289C62.9405 129.631 66.3932 135.233 71.4745 137.057L71.0836 137.969ZM119.044 163.832C115.917 163.832 114.158 160.77 114.158 157.252C114.158 154.581 114.94 151.715 116.633 148.979C119.76 143.897 125.363 140.575 128.815 140.575C130.509 140.575 131.096 141.552 131.096 142.595C131.096 143.963 130.053 145.461 128.49 146.894C126.275 148.849 122.822 150.412 119.891 151.259C118.262 154.19 116.698 157.708 116.698 160.379C116.698 162.073 117.35 163.18 119.239 163.18C122.562 163.18 126.34 160.184 131.812 151.585C132.073 151.324 132.464 151.324 132.464 151.585C126.731 160.64 122.692 163.832 119.044 163.832ZM120.151 150.673C122.887 149.761 126.014 148.197 128.034 146.373C129.532 145.005 130.509 143.572 130.509 142.399C130.509 141.617 130.118 141.096 129.206 141.096C126.991 141.096 123.799 144.484 120.607 149.956L120.151 150.673Z" fill="white"/>
<path d="M71.0836 137.969L70.8462 138.59L71.4426 138.818L71.6942 138.231L71.0836 137.969ZM126.066 117.514L126.598 117.115L126.151 116.52L125.61 117.03L126.066 117.514ZM126.457 118.035L126.913 118.517L127.344 118.11L126.988 117.636L126.457 118.035ZM115.447 121.032V120.367H115.083L114.888 120.674L115.447 121.032ZM96.6857 150.412L96.1258 150.054L95.4734 151.076H96.6857V150.412ZM97.0114 150.412V151.076H97.3449L97.5441 150.809L97.0114 150.412ZM108.151 152.562L108.681 152.962L108.681 152.962L108.151 152.562ZM106.132 155.233L105.602 154.832L105.601 154.833L106.132 155.233ZM113.558 154.19L113.008 153.819L113.008 153.819L113.558 154.19ZM115.317 151.585L114.919 151.053L114.829 151.12L114.767 151.213L115.317 151.585ZM115.969 151.585L116.519 151.956L116.768 151.587L116.521 151.216L115.969 151.585ZM114.21 154.19L113.659 153.819L113.658 153.82L114.21 154.19ZM104.894 150.477L104.367 150.073L104.366 150.074L104.894 150.477ZM107.044 147.676L106.517 147.271L106.517 147.271L107.044 147.676ZM94.145 155.624L93.5911 155.257L93.5866 155.264L93.5823 155.271L94.145 155.624ZM89.3243 163.311V163.975H89.6918L89.887 163.664L89.3243 163.311ZM84.3732 163.311L83.8102 162.958L83.1738 163.975H84.3732V163.311ZM111.083 120.641L111.646 120.993L112.197 120.112L111.166 119.982L111.083 120.641ZM97.8583 117.644L98.042 117.006L97.5603 116.867L97.2948 117.292L97.8583 117.644ZM71.2139 160.314L71.5283 160.899L71.6838 160.816L71.7773 160.666L71.2139 160.314ZM66.8492 162.659L66.5348 162.074L66.8492 163.324V162.659ZM79.9434 162.659L80.5375 162.956L81.0181 161.995H79.9434V162.659ZM79.6176 163.311V163.975H80.0282L80.2118 163.608L79.6176 163.311ZM53.5596 163.311L52.9429 163.064L52.5785 163.975H53.5596V163.311ZM53.8202 162.659V161.995H53.3705L53.2034 162.413L53.8202 162.659ZM64.3737 162.659V163.324H64.7418L64.937 163.011L64.3737 162.659ZM93.3633 116.276L93.9265 116.628L94.3966 115.876L93.5426 115.636L93.3633 116.276ZM71.4745 137.057L72.085 137.319L72.363 136.67L71.6989 136.432L71.4745 137.057ZM71.0836 137.969L71.3211 137.349C66.3422 135.443 62.9533 129.793 62.9533 124.289H62.289H61.6248C61.6248 130.25 65.2716 136.456 70.8462 138.59L71.0836 137.969ZM62.289 124.289H62.9533C62.9533 121.51 63.9079 118.813 66.0346 116.808C68.1612 114.803 71.5323 113.422 76.4907 113.422V112.758V112.094C71.2865 112.094 67.5567 113.547 65.1232 115.842C62.6897 118.136 61.6248 121.204 61.6248 124.289H62.289ZM76.4907 112.758V113.422C83.7418 113.422 90.0701 115.298 96.4882 117.206C102.887 119.108 109.376 121.044 116.815 121.044V120.38V119.716C109.597 119.716 103.286 117.841 96.8668 115.932C90.4676 114.03 83.9624 112.094 76.4907 112.094V112.758ZM116.815 120.38V121.044C120.325 121.044 124.056 120.322 126.522 117.997L126.066 117.514L125.61 117.03C123.516 119.005 120.211 119.716 116.815 119.716V120.38ZM126.066 117.514L125.535 117.912L125.926 118.433L126.457 118.035L126.988 117.636L126.598 117.115L126.066 117.514ZM126.457 118.035L126.001 117.552C123.778 119.654 120.216 120.367 116.815 120.367V121.032V121.696C120.32 121.696 124.315 120.976 126.913 118.517L126.457 118.035ZM116.815 121.032V120.367H115.447V121.032V121.696H116.815V121.032ZM115.447 121.032L114.888 120.674L96.1258 150.054L96.6857 150.412L97.2455 150.769L116.007 121.389L115.447 121.032ZM96.6857 150.412V151.076H97.0114V150.412V149.748H96.6857V150.412ZM97.0114 150.412L97.5441 150.809C99.8098 147.766 101.942 145.351 103.875 143.703C105.83 142.036 107.483 141.239 108.803 141.239V140.575V139.911C106.995 139.911 105.033 140.97 103.014 142.692C100.973 144.431 98.7731 146.934 96.4786 150.015L97.0114 150.412ZM108.803 140.575V141.239C109.554 141.239 110 141.53 110.299 142.037C110.632 142.6 110.809 143.483 110.809 144.679H111.474H112.138C112.138 143.4 111.957 142.23 111.443 141.361C110.896 140.435 110.006 139.911 108.803 139.911V140.575ZM111.474 144.679H110.809C110.809 146.955 110.181 148.77 107.621 152.162L108.151 152.562L108.681 152.962C111.333 149.448 112.138 147.355 112.138 144.679H111.474ZM108.151 152.562L107.621 152.161L105.602 154.832L106.132 155.233L106.662 155.633L108.681 152.962L108.151 152.562ZM106.132 155.233L105.601 154.833C104.2 156.69 103.234 158.054 102.617 159.118C102.004 160.177 101.689 161.017 101.689 161.812H102.353H103.018C103.018 161.37 103.191 160.777 103.767 159.784C104.339 158.796 105.262 157.489 106.662 155.633L106.132 155.233ZM102.353 161.812H101.689C101.689 162.476 101.901 163.077 102.368 163.507C102.827 163.929 103.447 164.105 104.112 164.105V163.441V162.777C103.67 162.777 103.41 162.66 103.267 162.528C103.132 162.404 103.018 162.191 103.018 161.812H102.353ZM104.112 163.441V164.105C105.964 164.105 107.58 162.966 109.127 161.295C110.684 159.613 112.293 157.253 114.109 154.562L113.558 154.19L113.008 153.819C111.175 156.535 109.625 158.8 108.152 160.392C106.67 161.994 105.387 162.777 104.112 162.777V163.441ZM113.558 154.19L114.109 154.562L115.868 151.956L115.317 151.585L114.767 151.213L113.008 153.819L113.558 154.19ZM115.317 151.585L115.716 152.116C115.769 152.076 115.763 152.102 115.692 152.102C115.653 152.102 115.598 152.093 115.541 152.064C115.483 152.033 115.442 151.992 115.416 151.953L115.969 151.585L116.521 151.216C116.327 150.925 116.017 150.774 115.692 150.774C115.393 150.774 115.126 150.898 114.919 151.053L115.317 151.585ZM115.969 151.585L115.418 151.213L113.659 153.819L114.21 154.19L114.76 154.562L116.519 151.956L115.969 151.585ZM114.21 154.19L113.658 153.82C111.989 156.307 110.373 158.704 108.737 160.483C107.082 162.283 105.541 163.298 104.047 163.298V163.962V164.626C106.136 164.626 108.016 163.231 109.715 161.383C111.434 159.514 113.108 157.024 114.761 154.561L114.21 154.19ZM104.047 163.962V163.298C103.071 163.298 102.5 162.861 102.134 162.211C101.742 161.515 101.584 160.555 101.584 159.597H100.92H100.256C100.256 160.659 100.424 161.882 100.976 162.863C101.555 163.891 102.547 164.626 104.047 164.626V163.962ZM100.92 159.597H101.584C101.584 157.077 102.719 154.419 105.422 150.88L104.894 150.477L104.366 150.074C101.596 153.701 100.256 156.646 100.256 159.597H100.92ZM104.894 150.477L105.421 150.882L107.571 148.08L107.044 147.676L106.517 147.271L104.367 150.073L104.894 150.477ZM107.044 147.676L107.57 148.081C108.553 146.803 109.293 145.746 109.79 144.856C110.28 143.977 110.574 143.188 110.574 142.464H109.91H109.246C109.246 142.848 109.084 143.395 108.63 144.209C108.182 145.013 107.489 146.008 106.517 147.271L107.044 147.676ZM109.91 142.464H110.574C110.574 142.018 110.474 141.519 110.095 141.14C109.717 140.761 109.186 140.627 108.607 140.627V141.292V141.956C109.006 141.956 109.126 142.05 109.155 142.079C109.183 142.107 109.246 142.194 109.246 142.464H109.91ZM108.607 141.292V140.627C107.574 140.627 106.482 141.034 105.367 141.719C104.247 142.408 103.055 143.408 101.808 144.668C99.3132 147.188 96.5333 150.811 93.5911 155.257L94.145 155.624L94.6989 155.99C97.6197 151.577 100.345 148.034 102.752 145.603C103.956 144.387 105.064 143.465 106.063 142.851C107.068 142.233 107.914 141.956 108.607 141.956V141.292ZM94.145 155.624L93.5823 155.271L88.7615 162.958L89.3243 163.311L89.887 163.664L94.7077 155.977L94.145 155.624ZM89.3243 163.311V162.646H84.3732V163.311V163.975H89.3243V163.311ZM84.3732 163.311L84.9363 163.663L111.646 120.993L111.083 120.641L110.52 120.288L83.8102 162.958L84.3732 163.311ZM111.083 120.641L111.166 119.982C106.596 119.402 102.34 118.243 98.042 117.006L97.8583 117.644L97.6745 118.282C101.976 119.521 106.319 120.706 110.999 121.3L111.083 120.641ZM97.8583 117.644L97.2948 117.292L70.6505 159.962L71.2139 160.314L71.7773 160.666L98.4217 117.996L97.8583 117.644ZM71.2139 160.314L70.8995 159.729L66.5348 162.074L66.8492 162.659L67.1636 163.244L71.5283 160.899L71.2139 160.314ZM66.8492 162.659V163.324H79.9434V162.659V161.995H66.8492V162.659ZM79.9434 162.659L79.3492 162.362L79.0235 163.014L79.6176 163.311L80.2118 163.608L80.5375 162.956L79.9434 162.659ZM79.6176 163.311V162.646H53.5596V163.311V163.975H79.6176V163.311ZM53.5596 163.311L54.1763 163.557L54.4369 162.906L53.8202 162.659L53.2034 162.413L52.9429 163.064L53.5596 163.311ZM53.8202 162.659V163.324H64.3737V162.659V161.995H53.8202V162.659ZM64.3737 162.659L64.937 163.011L93.9265 116.628L93.3633 116.276L92.8 115.924L63.8104 162.307L64.3737 162.659ZM93.3633 116.276L93.5426 115.636C88.1938 114.136 82.6467 112.745 76.4907 112.745V113.41V114.074C82.4517 114.074 87.8489 115.419 93.1839 116.916L93.3633 116.276ZM76.4907 113.41V112.745C71.4875 112.745 67.92 114.098 65.5982 116.262C63.2744 118.429 62.2762 121.337 62.2762 124.289H62.9405H63.6047C63.6047 121.638 64.4958 119.107 66.5041 117.234C68.5145 115.36 71.722 114.074 76.4907 114.074V113.41ZM62.9405 124.289H62.2762C62.2762 129.872 65.8702 135.751 71.2501 137.682L71.4745 137.057L71.6989 136.432C66.9162 134.715 63.6047 129.389 63.6047 124.289H62.9405ZM71.4745 137.057L70.864 136.796L70.4731 137.708L71.0836 137.969L71.6942 138.231L72.085 137.319L71.4745 137.057ZM116.633 148.979L117.198 149.328L117.199 149.327L116.633 148.979ZM128.49 146.894L128.929 147.392L128.939 147.384L128.49 146.894ZM119.891 151.259L119.706 150.621L119.443 150.697L119.31 150.936L119.891 151.259ZM131.812 151.585L131.342 151.115L131.291 151.166L131.252 151.228L131.812 151.585ZM132.464 151.585L133.025 151.94L133.128 151.777V151.585H132.464ZM120.151 150.673L119.591 150.316L118.586 151.894L120.361 151.303L120.151 150.673ZM128.034 146.373L128.479 146.866L128.482 146.864L128.034 146.373ZM120.607 149.956L121.168 150.313L121.174 150.302L121.181 150.291L120.607 149.956ZM119.044 163.832V163.168C117.729 163.168 116.7 162.536 115.975 161.484C115.238 160.415 114.822 158.911 114.822 157.252H114.158H113.494C113.494 159.112 113.957 160.897 114.881 162.238C115.818 163.597 117.232 164.496 119.044 164.496V163.832ZM114.158 157.252H114.822C114.822 154.711 115.566 151.965 117.198 149.328L116.633 148.979L116.069 148.629C114.313 151.464 113.494 154.451 113.494 157.252H114.158ZM116.633 148.979L117.199 149.327C118.706 146.878 120.816 144.845 122.968 143.426C125.135 141.997 127.27 141.239 128.815 141.239V140.575V139.911C126.908 139.911 124.515 140.814 122.237 142.317C119.942 143.83 117.688 145.998 116.068 148.631L116.633 148.979ZM128.815 140.575V141.239C129.533 141.239 129.91 141.443 130.111 141.653C130.319 141.87 130.431 142.191 130.431 142.595H131.096H131.76C131.76 141.955 131.579 141.267 131.071 140.735C130.555 140.196 129.791 139.911 128.815 139.911V140.575ZM131.096 142.595H130.431C130.431 143.111 130.233 143.705 129.817 144.366C129.402 145.025 128.795 145.713 128.041 146.405L128.49 146.894L128.939 147.384C129.748 146.642 130.444 145.864 130.941 145.074C131.437 144.286 131.76 143.446 131.76 142.595H131.096ZM128.49 146.894L128.05 146.396C125.936 148.261 122.587 149.789 119.706 150.621L119.891 151.259L120.075 151.897C123.058 151.035 126.613 149.436 128.929 147.392L128.49 146.894ZM119.891 151.259L119.31 150.936C118.486 152.419 117.672 154.062 117.062 155.683C116.456 157.295 116.034 158.928 116.034 160.379H116.698H117.363C117.363 159.159 117.723 157.698 118.305 156.151C118.885 154.612 119.666 153.03 120.471 151.581L119.891 151.259ZM116.698 160.379H116.034C116.034 161.292 116.206 162.174 116.746 162.835C117.308 163.523 118.161 163.845 119.239 163.845V163.18V162.516C118.428 162.516 118.011 162.284 117.775 161.995C117.516 161.678 117.363 161.161 117.363 160.379H116.698ZM119.239 163.18V163.845C121.12 163.845 123.046 162.991 125.162 161.103C127.272 159.219 129.623 156.261 132.373 151.941L131.812 151.585L131.252 151.228C128.529 155.507 126.254 158.347 124.277 160.112C122.305 161.872 120.681 162.516 119.239 162.516V163.18ZM131.812 151.585L132.282 152.054C132.305 152.031 132.305 152.053 132.236 152.053C132.199 152.053 132.094 152.045 131.983 151.957C131.853 151.852 131.799 151.703 131.799 151.585H132.464H133.128C133.128 151.336 133.025 151.089 132.813 150.919C132.621 150.766 132.402 150.725 132.236 150.725C131.905 150.725 131.579 150.878 131.342 151.115L131.812 151.585ZM132.464 151.585L131.902 151.229C129.049 155.736 126.646 158.737 124.532 160.606C122.425 162.47 120.653 163.168 119.044 163.168V163.832V164.496C121.082 164.496 123.154 163.598 125.412 161.602C127.663 159.611 130.145 156.489 133.025 151.94L132.464 151.585ZM120.151 150.673L120.361 151.303C123.148 150.374 126.368 148.773 128.479 146.866L128.034 146.373L127.588 145.88C125.661 147.621 122.627 149.147 119.941 150.042L120.151 150.673ZM128.034 146.373L128.482 146.864C129.26 146.153 129.921 145.409 130.393 144.67C130.86 143.939 131.173 143.162 131.173 142.399H130.509H129.845C129.845 142.809 129.67 143.334 129.273 143.955C128.882 144.568 128.306 145.225 127.586 145.882L128.034 146.373ZM130.509 142.399H131.173C131.173 141.906 131.05 141.394 130.687 141.003C130.314 140.602 129.789 140.432 129.206 140.432V141.096V141.76C129.536 141.76 129.662 141.851 129.713 141.907C129.773 141.971 129.845 142.11 129.845 142.399H130.509ZM129.206 141.096V140.432C128.487 140.432 127.751 140.705 127.031 141.144C126.307 141.586 125.556 142.222 124.795 143.013C123.271 144.596 121.645 146.859 120.033 149.621L120.607 149.956L121.181 150.291C122.762 147.581 124.327 145.414 125.752 143.935C126.464 143.195 127.126 142.642 127.723 142.278C128.324 141.911 128.818 141.76 129.206 141.76V141.096ZM120.607 149.956L120.047 149.599L119.591 150.316L120.151 150.673L120.712 151.029L121.168 150.313L120.607 149.956Z" fill="white" mask="url(#path-2-outside-1_3728_241)"/>
<mask id="path-4-outside-2_3728_241" maskUnits="userSpaceOnUse" x="81.3491" y="151.129" width="153" height="54" fill="black">
<rect fill="white" x="81.3491" y="151.129" width="153" height="54"/>
<path d="M97.7657 203.712C86.7562 203.712 82.196 197.002 82.196 190.226C82.196 181.171 90.4694 171.269 105.127 171.269V172.377C90.9255 172.377 82.9777 181.627 82.9777 190.226C82.9777 196.806 87.7333 202.865 97.3748 202.865C111.642 202.865 113.335 188.598 114.703 178.566C116.332 166.449 118.156 155.374 130.143 155.374H133.661L132.227 157.458C130.925 156.416 130.143 156.025 128.384 156.025C121.218 156.025 121.479 162.279 119.785 176.741C118.873 184.494 116.332 203.712 97.7657 203.712ZM125.145 200.585C122.083 200.585 120.911 197.002 120.911 194.461C120.911 185.275 128.663 177.393 135.438 177.393H135.568C136.415 177.393 137.132 177.588 137.653 177.914L137.848 177.979H145.47C145.535 178.175 145.601 178.37 145.275 178.566H138.369C138.891 179.282 139.151 180.324 139.151 181.627C139.151 184.429 137.979 187.946 135.959 191.334C133.158 196.024 128.663 200.585 125.145 200.585ZM125.145 199.998C128.337 199.998 132.115 195.438 134.852 190.682C136.871 187.165 138.369 183.647 138.369 181.041C138.369 179.934 138.109 179.087 137.588 178.566H134.396C132.246 179.868 129.51 183.061 127.23 186.644C124.884 190.422 123.06 194.656 123.06 197.458C123.06 199.021 123.581 199.998 125.145 199.998ZM141.658 200.65C139.899 200.65 138.596 199.217 138.596 195.959C138.596 192.832 140.095 189.575 143.873 183.973L147.261 178.956L147.065 178.566H144.329C144.264 178.37 144.394 178.109 144.655 177.979H151.821L151.951 178.696L146.088 187.425C141.202 194.721 139.964 196.48 139.964 198.239C139.964 199.412 140.486 200.063 141.658 200.063C145.176 200.063 149.41 194.526 153.71 187.621L159.117 178.956L158.922 178.566H156.446C156.446 178.37 156.511 178.175 156.772 177.979H163.873L164.003 178.696L156.642 190.292C153.254 195.634 152.342 197.067 152.342 198.435C152.342 199.607 152.993 200.129 154.101 200.129C157.098 200.129 159.834 196.415 163.482 191.008L165.241 188.402C165.501 188.207 165.762 188.207 165.892 188.402L164.133 191.008C160.811 195.959 157.619 200.65 154.101 200.65C151.821 200.65 151.169 198.695 151.169 196.35C151.169 195.112 151.3 193.679 151.495 192.376H151.169C148.108 196.936 144.525 200.65 141.658 200.65ZM180.856 200.78C178.38 200.78 177.729 198.435 177.729 196.415C177.729 193.679 178.967 190.878 181.703 187.295L183.852 184.494C185.807 181.953 186.719 180.39 186.719 179.282C186.719 178.566 186.393 178.109 185.416 178.109C182.159 178.109 177.338 182.995 171.866 191.073L171.54 191.595L166.003 200.129H161.442L170.889 185.21C172.322 182.995 173.169 181.432 173.169 180.259C173.169 179.152 172.713 178.566 171.019 178.566H168.348C168.413 178.305 168.543 178.109 168.674 177.979H171.279C173.299 177.979 174.211 178.891 174.211 181.302V186.122H174.667C178.901 180.65 182.68 177.393 185.611 177.393C187.566 177.393 188.282 179.022 188.282 181.497C188.282 183.973 187.566 185.927 184.96 189.38L182.94 192.051C180.139 195.764 179.162 197.392 179.162 198.63C179.162 199.673 179.813 200.259 180.921 200.259C184.048 200.259 186.719 196.415 190.367 191.008L192.126 188.402C192.386 188.207 192.647 188.207 192.777 188.402L191.018 191.008C187.696 195.959 184.439 200.78 180.856 200.78ZM206.783 200.585C204.373 200.585 203.395 198.695 203.395 195.503C203.395 194.265 203.526 192.963 203.917 191.66H203.526C199.356 197.848 196.49 200.845 194.015 200.845C191.669 200.845 190.366 198.044 190.366 194.982C190.366 191.985 191.604 188.858 193.233 186.318C196.685 180.911 202.353 177.393 208.477 177.393C209.649 177.393 210.561 177.458 211.669 177.719L225.284 156.025H214.34L214.731 155.374H224.698C227.564 155.374 229.714 154.657 231.343 152.442H232.19L210.236 187.49C207.044 192.637 204.894 195.894 204.894 198.044C204.894 199.282 205.35 200.063 206.783 200.063C209.845 200.063 212.841 196.546 216.164 191.595L218.314 188.402C218.574 188.272 218.835 188.272 218.965 188.402L216.685 191.79C213.428 196.611 210.301 200.585 206.783 200.585ZM192.451 198.239C192.451 199.477 193.103 200.259 194.145 200.259C196.229 200.259 199.161 197.262 203.395 190.682L207.956 183.582L211.148 178.5C210.496 178.109 209.649 177.914 208.477 177.914C204.177 177.914 201.115 181.302 197.337 186.969C194.471 191.204 192.451 195.568 192.451 198.239Z"/>
</mask>
<path d="M97.7657 203.712C86.7562 203.712 82.196 197.002 82.196 190.226C82.196 181.171 90.4694 171.269 105.127 171.269V172.377C90.9255 172.377 82.9777 181.627 82.9777 190.226C82.9777 196.806 87.7333 202.865 97.3748 202.865C111.642 202.865 113.335 188.598 114.703 178.566C116.332 166.449 118.156 155.374 130.143 155.374H133.661L132.227 157.458C130.925 156.416 130.143 156.025 128.384 156.025C121.218 156.025 121.479 162.279 119.785 176.741C118.873 184.494 116.332 203.712 97.7657 203.712ZM125.145 200.585C122.083 200.585 120.911 197.002 120.911 194.461C120.911 185.275 128.663 177.393 135.438 177.393H135.568C136.415 177.393 137.132 177.588 137.653 177.914L137.848 177.979H145.47C145.535 178.175 145.601 178.37 145.275 178.566H138.369C138.891 179.282 139.151 180.324 139.151 181.627C139.151 184.429 137.979 187.946 135.959 191.334C133.158 196.024 128.663 200.585 125.145 200.585ZM125.145 199.998C128.337 199.998 132.115 195.438 134.852 190.682C136.871 187.165 138.369 183.647 138.369 181.041C138.369 179.934 138.109 179.087 137.588 178.566H134.396C132.246 179.868 129.51 183.061 127.23 186.644C124.884 190.422 123.06 194.656 123.06 197.458C123.06 199.021 123.581 199.998 125.145 199.998ZM141.658 200.65C139.899 200.65 138.596 199.217 138.596 195.959C138.596 192.832 140.095 189.575 143.873 183.973L147.261 178.956L147.065 178.566H144.329C144.264 178.37 144.394 178.109 144.655 177.979H151.821L151.951 178.696L146.088 187.425C141.202 194.721 139.964 196.48 139.964 198.239C139.964 199.412 140.486 200.063 141.658 200.063C145.176 200.063 149.41 194.526 153.71 187.621L159.117 178.956L158.922 178.566H156.446C156.446 178.37 156.511 178.175 156.772 177.979H163.873L164.003 178.696L156.642 190.292C153.254 195.634 152.342 197.067 152.342 198.435C152.342 199.607 152.993 200.129 154.101 200.129C157.098 200.129 159.834 196.415 163.482 191.008L165.241 188.402C165.501 188.207 165.762 188.207 165.892 188.402L164.133 191.008C160.811 195.959 157.619 200.65 154.101 200.65C151.821 200.65 151.169 198.695 151.169 196.35C151.169 195.112 151.3 193.679 151.495 192.376H151.169C148.108 196.936 144.525 200.65 141.658 200.65ZM180.856 200.78C178.38 200.78 177.729 198.435 177.729 196.415C177.729 193.679 178.967 190.878 181.703 187.295L183.852 184.494C185.807 181.953 186.719 180.39 186.719 179.282C186.719 178.566 186.393 178.109 185.416 178.109C182.159 178.109 177.338 182.995 171.866 191.073L171.54 191.595L166.003 200.129H161.442L170.889 185.21C172.322 182.995 173.169 181.432 173.169 180.259C173.169 179.152 172.713 178.566 171.019 178.566H168.348C168.413 178.305 168.543 178.109 168.674 177.979H171.279C173.299 177.979 174.211 178.891 174.211 181.302V186.122H174.667C178.901 180.65 182.68 177.393 185.611 177.393C187.566 177.393 188.282 179.022 188.282 181.497C188.282 183.973 187.566 185.927 184.96 189.38L182.94 192.051C180.139 195.764 179.162 197.392 179.162 198.63C179.162 199.673 179.813 200.259 180.921 200.259C184.048 200.259 186.719 196.415 190.367 191.008L192.126 188.402C192.386 188.207 192.647 188.207 192.777 188.402L191.018 191.008C187.696 195.959 184.439 200.78 180.856 200.78ZM206.783 200.585C204.373 200.585 203.395 198.695 203.395 195.503C203.395 194.265 203.526 192.963 203.917 191.66H203.526C199.356 197.848 196.49 200.845 194.015 200.845C191.669 200.845 190.366 198.044 190.366 194.982C190.366 191.985 191.604 188.858 193.233 186.318C196.685 180.911 202.353 177.393 208.477 177.393C209.649 177.393 210.561 177.458 211.669 177.719L225.284 156.025H214.34L214.731 155.374H224.698C227.564 155.374 229.714 154.657 231.343 152.442H232.19L210.236 187.49C207.044 192.637 204.894 195.894 204.894 198.044C204.894 199.282 205.35 200.063 206.783 200.063C209.845 200.063 212.841 196.546 216.164 191.595L218.314 188.402C218.574 188.272 218.835 188.272 218.965 188.402L216.685 191.79C213.428 196.611 210.301 200.585 206.783 200.585ZM192.451 198.239C192.451 199.477 193.103 200.259 194.145 200.259C196.229 200.259 199.161 197.262 203.395 190.682L207.956 183.582L211.148 178.5C210.496 178.109 209.649 177.914 208.477 177.914C204.177 177.914 201.115 181.302 197.337 186.969C194.471 191.204 192.451 195.568 192.451 198.239Z" fill="white"/>
<path d="M105.127 171.269H105.791V170.605H105.127V171.269ZM105.127 172.377V173.041H105.791V172.377H105.127ZM114.703 178.566L115.362 178.655L115.362 178.654L114.703 178.566ZM133.661 155.374L134.208 155.75L134.923 154.71H133.661V155.374ZM132.227 157.458L131.813 157.977L132.37 158.423L132.775 157.835L132.227 157.458ZM119.785 176.741L120.444 176.819L120.444 176.819L119.785 176.741ZM97.7657 203.712V203.047C92.4 203.047 88.6902 201.416 86.3227 199.041C83.9499 196.66 82.8603 193.468 82.8603 190.226H82.196H81.5318C81.5318 193.76 82.7222 197.31 85.3818 199.979C88.0469 202.652 92.1219 204.376 97.7657 204.376V203.712ZM82.196 190.226H82.8603C82.8603 181.586 90.7865 171.934 105.127 171.934V171.269V170.605C90.1524 170.605 81.5318 180.757 81.5318 190.226H82.196ZM105.127 171.269H104.463V172.377H105.127H105.791V171.269H105.127ZM105.127 172.377V171.712C90.6258 171.712 82.3135 181.197 82.3135 190.226H82.9777H83.642C83.642 182.058 91.2251 173.041 105.127 173.041V172.377ZM82.9777 190.226H82.3135C82.3135 193.677 83.562 197.014 86.0967 199.488C88.6348 201.966 92.4107 203.529 97.3748 203.529V202.865V202.2C92.6975 202.2 89.2748 200.734 87.0247 198.538C84.7713 196.338 83.642 193.356 83.642 190.226H82.9777ZM97.3748 202.865V203.529C101.058 203.529 103.974 202.606 106.284 201.027C108.588 199.452 110.247 197.254 111.472 194.771C113.907 189.833 114.682 183.639 115.362 178.655L114.703 178.566L114.045 178.476C113.357 183.524 112.601 189.48 110.28 194.183C109.127 196.521 107.602 198.517 105.534 199.93C103.471 201.34 100.825 202.2 97.3748 202.2V202.865ZM114.703 178.566L115.362 178.654C116.18 172.568 117.034 166.889 119.132 162.725C120.173 160.659 121.505 158.998 123.265 157.85C125.022 156.704 127.253 156.038 130.143 156.038V155.374V154.71C127.04 154.71 124.547 155.428 122.54 156.737C120.535 158.044 119.063 159.91 117.946 162.127C115.728 166.529 114.856 172.446 114.045 178.477L114.703 178.566ZM130.143 155.374V156.038H133.661V155.374V154.71H130.143V155.374ZM133.661 155.374L133.113 154.998L131.68 157.082L132.227 157.458L132.775 157.835L134.208 155.75L133.661 155.374ZM132.227 157.458L132.642 156.94C131.978 156.408 131.394 155.999 130.72 155.733C130.039 155.464 129.314 155.361 128.384 155.361V156.025V156.69C129.213 156.69 129.758 156.782 130.233 156.969C130.716 157.159 131.174 157.467 131.813 157.977L132.227 157.458ZM128.384 156.025V155.361C126.496 155.361 125.003 155.774 123.839 156.711C122.684 157.64 121.938 159.016 121.398 160.764C120.858 162.51 120.502 164.698 120.176 167.321C119.851 169.936 119.545 173.075 119.125 176.664L119.785 176.741L120.444 176.819C120.871 173.177 121.168 170.111 121.494 167.485C121.82 164.869 122.164 162.782 122.667 161.156C123.169 159.533 123.807 158.441 124.672 157.746C125.527 157.058 126.689 156.69 128.384 156.69V156.025ZM119.785 176.741L119.125 176.664C118.669 180.544 117.814 187.171 114.809 192.822C113.312 195.638 111.291 198.189 108.54 200.036C105.795 201.88 102.286 203.047 97.7657 203.047V203.712V204.376C102.529 204.376 106.3 203.141 109.281 201.139C112.256 199.141 114.41 196.403 115.982 193.445C119.117 187.549 119.989 180.691 120.444 176.819L119.785 176.741ZM137.653 177.914L137.301 178.477L137.368 178.519L137.443 178.544L137.653 177.914ZM137.848 177.979L137.638 178.609L137.74 178.643H137.848V177.979ZM145.47 177.979L146.1 177.769L145.949 177.315H145.47V177.979ZM145.275 178.566V179.23H145.459L145.617 179.135L145.275 178.566ZM138.369 178.566V177.901H137.065L137.832 178.956L138.369 178.566ZM135.959 191.334L136.529 191.675L136.53 191.674L135.959 191.334ZM134.852 190.682L135.427 191.014L135.428 191.013L134.852 190.682ZM137.588 178.566L138.057 178.096L137.863 177.901H137.588V178.566ZM134.396 178.566V177.901H134.21L134.051 177.997L134.396 178.566ZM127.23 186.644L126.669 186.287L126.665 186.293L127.23 186.644ZM125.145 200.585V199.92C123.928 199.92 123.059 199.228 122.46 198.152C121.852 197.061 121.575 195.647 121.575 194.461H120.911H120.246C120.246 195.815 120.556 197.464 121.299 198.799C122.052 200.15 123.3 201.249 125.145 201.249V200.585ZM120.911 194.461H121.575C121.575 190.054 123.437 185.94 126.129 182.925C128.831 179.898 132.296 178.057 135.438 178.057V177.393V176.729C131.804 176.729 128.006 178.829 125.138 182.04C122.261 185.262 120.246 189.682 120.246 194.461H120.911ZM135.438 177.393V178.057H135.568V177.393V176.729H135.438V177.393ZM135.568 177.393V178.057C136.318 178.057 136.907 178.231 137.301 178.477L137.653 177.914L138.005 177.351C137.357 176.946 136.512 176.729 135.568 176.729V177.393ZM137.653 177.914L137.443 178.544L137.638 178.609L137.848 177.979L138.058 177.349L137.863 177.284L137.653 177.914ZM137.848 177.979V178.643H145.47V177.979V177.315H137.848V177.979ZM145.47 177.979L144.84 178.189C144.849 178.215 144.854 178.231 144.858 178.245C144.862 178.258 144.863 178.262 144.863 178.261C144.862 178.26 144.854 178.221 144.864 178.163C144.875 178.098 144.902 178.043 144.931 178.007C144.955 177.976 144.967 177.976 144.933 177.996L145.275 178.566L145.617 179.135C145.882 178.976 146.115 178.735 146.174 178.382C146.223 178.092 146.121 177.832 146.1 177.769L145.47 177.979ZM145.275 178.566V177.901H138.369V178.566V179.23H145.275V178.566ZM138.369 178.566L137.832 178.956C138.238 179.515 138.487 180.397 138.487 181.627H139.151H139.815C139.815 180.251 139.543 179.049 138.907 178.175L138.369 178.566ZM139.151 181.627H138.487C138.487 184.267 137.372 187.666 135.388 190.994L135.959 191.334L136.53 191.674C138.585 188.227 139.815 184.59 139.815 181.627H139.151ZM135.959 191.334L135.389 190.993C134.016 193.292 132.232 195.55 130.376 197.225C128.492 198.924 126.648 199.92 125.145 199.92V200.585V201.249C127.16 201.249 129.322 199.965 131.266 198.211C133.236 196.433 135.101 194.067 136.529 191.675L135.959 191.334ZM125.145 199.998V200.662C127.03 200.662 128.94 199.342 130.646 197.587C132.383 195.799 134.043 193.42 135.427 191.014L134.852 190.682L134.276 190.351C132.924 192.7 131.327 194.979 129.693 196.661C128.027 198.375 126.452 199.334 125.145 199.334V199.998ZM134.852 190.682L135.428 191.013C136.448 189.235 137.345 187.444 137.988 185.756C138.629 184.076 139.034 182.459 139.034 181.041H138.369H137.705C137.705 182.229 137.361 183.673 136.747 185.283C136.136 186.885 135.274 188.612 134.276 190.352L134.852 190.682ZM138.369 181.041H139.034C139.034 179.851 138.757 178.795 138.057 178.096L137.588 178.566L137.118 179.035C137.461 179.378 137.705 180.016 137.705 181.041H138.369ZM137.588 178.566V177.901H134.396V178.566V179.23H137.588V178.566ZM134.396 178.566L134.051 177.997C131.765 179.383 128.961 182.685 126.669 186.287L127.23 186.644L127.79 187C130.058 183.436 132.727 180.354 134.74 179.134L134.396 178.566ZM127.23 186.644L126.665 186.293C125.476 188.209 124.415 190.247 123.648 192.171C122.887 194.083 122.396 195.934 122.396 197.458H123.06H123.725C123.725 196.18 124.146 194.513 124.883 192.663C125.615 190.825 126.638 188.856 127.794 186.994L127.23 186.644ZM123.06 197.458H122.396C122.396 198.289 122.53 199.099 122.983 199.71C123.466 200.363 124.215 200.662 125.145 200.662V199.998V199.334C124.512 199.334 124.218 199.145 124.05 198.919C123.851 198.65 123.725 198.189 123.725 197.458H123.06ZM143.873 183.973L143.323 183.601L143.322 183.601L143.873 183.973ZM147.261 178.956L147.811 179.328L148.028 179.006L147.855 178.659L147.261 178.956ZM147.065 178.566L147.659 178.268L147.476 177.901H147.065V178.566ZM144.329 178.566L143.699 178.776L143.85 179.23H144.329V178.566ZM144.655 177.979V177.315H144.498L144.358 177.385L144.655 177.979ZM151.821 177.979L152.474 177.86L152.375 177.315H151.821V177.979ZM151.951 178.696L152.503 179.066L152.653 178.842L152.605 178.577L151.951 178.696ZM146.088 187.425L145.537 187.055L145.536 187.056L146.088 187.425ZM153.71 187.621L153.147 187.269L153.146 187.27L153.71 187.621ZM159.117 178.956L159.681 179.308L159.878 178.992L159.711 178.659L159.117 178.956ZM158.922 178.566L159.516 178.268L159.332 177.901H158.922V178.566ZM156.446 178.566H155.782V179.23H156.446V178.566ZM156.772 177.979V177.315H156.55L156.373 177.448L156.772 177.979ZM163.873 177.979L164.526 177.86L164.427 177.315H163.873V177.979ZM164.003 178.696L164.564 179.052L164.703 178.833L164.657 178.577L164.003 178.696ZM156.642 190.292L156.081 189.936L156.081 189.936L156.642 190.292ZM163.482 191.008L162.931 190.637L162.931 190.637L163.482 191.008ZM165.241 188.402L164.842 187.871L164.753 187.938L164.69 188.031L165.241 188.402ZM165.892 188.402L166.443 188.774L166.692 188.405L166.445 188.034L165.892 188.402ZM164.133 191.008L163.583 190.637L163.582 190.638L164.133 191.008ZM151.495 192.376L152.152 192.475L152.266 191.712H151.495V192.376ZM151.169 192.376V191.712H150.815L150.618 192.006L151.169 192.376ZM141.658 200.65V199.985C140.982 199.985 140.423 199.722 140.009 199.14C139.574 198.53 139.261 197.513 139.261 195.959H138.596H137.932C137.932 197.663 138.271 198.991 138.927 199.911C139.603 200.861 140.575 201.314 141.658 201.314V200.65ZM138.596 195.959H139.261C139.261 193.055 140.644 189.948 144.424 184.344L143.873 183.973L143.322 183.601C139.545 189.202 137.932 192.61 137.932 195.959H138.596ZM143.873 183.973L144.424 184.344L147.811 179.328L147.261 178.956L146.71 178.585L143.323 183.601L143.873 183.973ZM147.261 178.956L147.855 178.659L147.659 178.268L147.065 178.566L146.471 178.863L146.667 179.253L147.261 178.956ZM147.065 178.566V177.901H144.329V178.566V179.23H147.065V178.566ZM144.329 178.566L144.959 178.355C144.998 178.471 144.963 178.548 144.955 178.563C144.944 178.583 144.939 178.58 144.952 178.573L144.655 177.979L144.358 177.385C143.914 177.607 143.494 178.161 143.699 178.776L144.329 178.566ZM144.655 177.979V178.643H151.821V177.979V177.315H144.655V177.979ZM151.821 177.979L151.167 178.098L151.298 178.815L151.951 178.696L152.605 178.577L152.474 177.86L151.821 177.979ZM151.951 178.696L151.4 178.325L145.537 187.055L146.088 187.425L146.64 187.796L152.503 179.066L151.951 178.696ZM146.088 187.425L145.536 187.056C143.101 190.692 141.554 192.979 140.621 194.573C139.687 196.168 139.3 197.176 139.3 198.239H139.964H140.629C140.629 197.544 140.861 196.793 141.767 195.244C142.674 193.695 144.189 191.455 146.64 187.795L146.088 187.425ZM139.964 198.239H139.3C139.3 198.91 139.448 199.554 139.877 200.034C140.318 200.528 140.95 200.728 141.658 200.728V200.063V199.399C141.194 199.399 140.979 199.273 140.867 199.148C140.742 199.009 140.629 198.741 140.629 198.239H139.964ZM141.658 200.063V200.728C142.712 200.728 143.763 200.314 144.784 199.646C145.808 198.977 146.844 198.024 147.883 196.877C149.961 194.584 152.119 191.432 154.274 187.972L153.71 187.621L153.146 187.27C151.001 190.715 148.893 193.784 146.899 195.986C145.902 197.086 144.951 197.95 144.057 198.534C143.161 199.121 142.363 199.399 141.658 199.399V200.063ZM153.71 187.621L154.274 187.972L159.681 179.308L159.117 178.956L158.554 178.605L153.147 187.269L153.71 187.621ZM159.117 178.956L159.711 178.659L159.516 178.268L158.922 178.566L158.328 178.863L158.523 179.253L159.117 178.956ZM158.922 178.566V177.901H156.446V178.566V179.23H158.922V178.566ZM156.446 178.566H157.11C157.11 178.554 157.111 178.551 157.111 178.554C157.11 178.559 157.108 178.564 157.105 178.569C157.103 178.574 157.103 178.572 157.111 178.563C157.119 178.554 157.137 178.536 157.17 178.511L156.772 177.979L156.373 177.448C156.178 177.594 156.021 177.767 155.917 177.975C155.812 178.186 155.782 178.39 155.782 178.566H156.446ZM156.772 177.979V178.643H163.873V177.979V177.315H156.772V177.979ZM163.873 177.979L163.219 178.098L163.349 178.815L164.003 178.696L164.657 178.577L164.526 177.86L163.873 177.979ZM164.003 178.696L163.442 178.34L156.081 189.936L156.642 190.292L157.202 190.648L164.564 179.052L164.003 178.696ZM156.642 190.292L156.081 189.936C154.394 192.596 153.303 194.314 152.638 195.536C151.972 196.76 151.678 197.581 151.678 198.435H152.342H153.006C153.006 197.921 153.168 197.341 153.805 196.171C154.443 194.999 155.502 193.329 157.203 190.647L156.642 190.292ZM152.342 198.435H151.678C151.678 199.142 151.877 199.77 152.357 200.21C152.826 200.642 153.454 200.793 154.101 200.793V200.129V199.464C153.64 199.464 153.389 199.355 153.256 199.232C153.132 199.119 153.006 198.9 153.006 198.435H152.342ZM154.101 200.129V200.793C155.885 200.793 157.484 199.689 159.03 198.052C160.588 196.402 162.213 194.076 164.032 191.38L163.482 191.008L162.931 190.637C161.102 193.347 159.535 195.582 158.064 197.14C156.58 198.711 155.314 199.464 154.101 199.464V200.129ZM163.482 191.008L164.032 191.38L165.791 188.774L165.241 188.402L164.69 188.031L162.931 190.637L163.482 191.008ZM165.241 188.402L165.639 188.934C165.693 188.894 165.686 188.92 165.615 188.92C165.576 188.92 165.522 188.911 165.465 188.881C165.407 188.851 165.365 188.809 165.34 188.771L165.892 188.402L166.445 188.034C166.251 187.743 165.941 187.592 165.615 187.592C165.316 187.592 165.049 187.716 164.842 187.871L165.241 188.402ZM165.892 188.402L165.342 188.031L163.583 190.637L164.133 191.008L164.684 191.38L166.443 188.774L165.892 188.402ZM164.133 191.008L163.582 190.638C161.913 193.125 160.314 195.489 158.702 197.235C157.072 199.002 155.564 199.985 154.101 199.985V200.65V201.314C156.156 201.314 158.002 199.953 159.679 198.136C161.373 196.299 163.031 193.843 164.685 191.378L164.133 191.008ZM154.101 200.65V199.985C153.196 199.985 152.685 199.622 152.357 199.049C151.995 198.418 151.834 197.484 151.834 196.35H151.169H150.505C150.505 197.562 150.669 198.777 151.204 199.71C151.771 200.7 152.726 201.314 154.101 201.314V200.65ZM151.169 196.35H151.834C151.834 195.153 151.96 193.754 152.152 192.475L151.495 192.376L150.838 192.278C150.639 193.604 150.505 195.071 150.505 196.35H151.169ZM151.495 192.376V191.712H151.169V192.376V193.041H151.495V192.376ZM151.169 192.376L150.618 192.006C149.104 194.261 147.476 196.283 145.892 197.733C144.282 199.207 142.83 199.985 141.658 199.985V200.65V201.314C143.353 201.314 145.126 200.236 146.789 198.713C148.479 197.166 150.173 195.051 151.721 192.747L151.169 192.376ZM181.703 187.295L181.176 186.891L181.175 186.892L181.703 187.295ZM183.852 184.494L183.326 184.089L183.325 184.089L183.852 184.494ZM171.866 191.073L171.316 190.701L171.309 190.711L171.302 190.721L171.866 191.073ZM171.54 191.595L172.097 191.956L172.103 191.947L171.54 191.595ZM166.003 200.129V200.793H166.363L166.56 200.49L166.003 200.129ZM161.442 200.129L160.881 199.773L160.236 200.793H161.442V200.129ZM170.889 185.21L170.331 184.849L170.327 184.855L170.889 185.21ZM168.348 178.566L167.703 178.404L167.497 179.23H168.348V178.566ZM168.674 177.979V177.315H168.398L168.204 177.51L168.674 177.979ZM174.211 186.122H173.547V186.787H174.211V186.122ZM174.667 186.122V186.787H174.993L175.192 186.529L174.667 186.122ZM184.96 189.38L185.49 189.78L185.49 189.78L184.96 189.38ZM182.94 192.051L182.411 191.65L182.41 191.651L182.94 192.051ZM190.367 191.008L189.816 190.637L189.816 190.637L190.367 191.008ZM192.126 188.402L191.727 187.871L191.638 187.938L191.575 188.031L192.126 188.402ZM192.777 188.402L193.328 188.774L193.577 188.405L193.33 188.034L192.777 188.402ZM191.018 191.008L190.468 190.637L190.467 190.638L191.018 191.008ZM180.856 200.78V200.116C179.88 200.116 179.309 199.679 178.943 199.029C178.551 198.333 178.393 197.373 178.393 196.415H177.729H177.065C177.065 197.477 177.233 198.7 177.785 199.681C178.364 200.709 179.356 201.444 180.856 201.444V200.78ZM177.729 196.415H178.393C178.393 193.895 179.528 191.237 182.231 187.698L181.703 187.295L181.175 186.892C178.405 190.519 177.065 193.463 177.065 196.415H177.729ZM181.703 187.295L182.23 187.699L184.379 184.898L183.852 184.494L183.325 184.089L181.176 186.891L181.703 187.295ZM183.852 184.494L184.379 184.899C185.362 183.621 186.102 182.564 186.599 181.674C187.089 180.794 187.383 180.006 187.383 179.282H186.719H186.055C186.055 179.665 185.892 180.213 185.438 181.027C184.99 181.83 184.297 182.826 183.326 184.089L183.852 184.494ZM186.719 179.282H187.383C187.383 178.836 187.283 178.337 186.903 177.957C186.525 177.579 185.994 177.445 185.416 177.445V178.109V178.774C185.814 178.774 185.935 178.868 185.964 178.897C185.992 178.925 186.055 179.012 186.055 179.282H186.719ZM185.416 178.109V177.445C184.44 177.445 183.41 177.809 182.358 178.426C181.301 179.046 180.18 179.948 179.009 181.086C176.666 183.362 174.064 186.644 171.316 190.701L171.866 191.073L172.416 191.446C175.14 187.425 177.684 184.225 179.934 182.039C181.059 180.945 182.096 180.12 183.03 179.572C183.969 179.021 184.763 178.774 185.416 178.774V178.109ZM171.866 191.073L171.302 190.721L170.977 191.242L171.54 191.595L172.103 191.947L172.429 191.425L171.866 191.073ZM171.54 191.595L170.983 191.233L165.445 199.767L166.003 200.129L166.56 200.49L172.097 191.956L171.54 191.595ZM166.003 200.129V199.464H161.442V200.129V200.793H166.003V200.129ZM161.442 200.129L162.004 200.484L171.45 185.566L170.889 185.21L170.327 184.855L160.881 199.773L161.442 200.129ZM170.889 185.21L171.446 185.571C172.166 184.459 172.755 183.486 173.165 182.631C173.571 181.785 173.833 180.994 173.833 180.259H173.169H172.504C172.504 180.697 172.343 181.274 171.967 182.056C171.595 182.831 171.045 183.746 170.331 184.849L170.889 185.21ZM173.169 180.259H173.833C173.833 179.632 173.706 178.969 173.166 178.497C172.654 178.049 171.91 177.901 171.019 177.901V178.566V179.23C171.821 179.23 172.152 179.375 172.291 179.497C172.403 179.595 172.504 179.779 172.504 180.259H173.169ZM171.019 178.566V177.901H168.348V178.566V179.23H171.019V178.566ZM168.348 178.566L168.992 178.727C169.025 178.594 169.09 178.503 169.143 178.449L168.674 177.979L168.204 177.51C167.997 177.716 167.801 178.016 167.703 178.404L168.348 178.566ZM168.674 177.979V178.643H171.279V177.979V177.315H168.674V177.979ZM171.279 177.979V178.643C172.204 178.643 172.711 178.853 173.011 179.183C173.325 179.529 173.547 180.155 173.547 181.302H174.211H174.875C174.875 180.038 174.641 179.002 173.994 178.29C173.333 177.561 172.375 177.315 171.279 177.315V177.979ZM174.211 181.302H173.547V186.122H174.211H174.875V181.302H174.211ZM174.211 186.122V186.787H174.667V186.122V185.458H174.211V186.122ZM174.667 186.122L175.192 186.529C177.294 183.813 179.262 181.674 181.047 180.221C182.849 178.753 184.377 178.057 185.611 178.057V177.393V176.729C183.914 176.729 182.087 177.661 180.208 179.19C178.313 180.734 176.274 182.96 174.142 185.716L174.667 186.122ZM185.611 177.393V178.057C186.362 178.057 186.808 178.348 187.108 178.855C187.441 179.418 187.618 180.301 187.618 181.497H188.282H188.947C188.947 180.218 188.765 179.048 188.252 178.179C187.704 177.253 186.815 176.729 185.611 176.729V177.393ZM188.282 181.497H187.618C187.618 183.772 186.989 185.588 184.43 188.979L184.96 189.38L185.49 189.78C188.142 186.266 188.947 184.173 188.947 181.497H188.282ZM184.96 189.38L184.43 188.979L182.411 191.65L182.94 192.051L183.47 192.451L185.49 189.78L184.96 189.38ZM182.94 192.051L182.41 191.651C181.009 193.508 180.043 194.871 179.426 195.936C178.813 196.994 178.498 197.835 178.498 198.63H179.162H179.826C179.826 198.188 180 197.595 180.575 196.602C181.148 195.614 182.07 194.307 183.471 192.451L182.94 192.051ZM179.162 198.63H178.498C178.498 199.294 178.709 199.895 179.177 200.324C179.636 200.746 180.256 200.923 180.921 200.923V200.259V199.595C180.479 199.595 180.219 199.478 180.076 199.346C179.94 199.222 179.826 199.009 179.826 198.63H179.162ZM180.921 200.259V200.923C182.773 200.923 184.389 199.784 185.936 198.112C187.492 196.431 189.102 194.071 190.918 191.38L190.367 191.008L189.816 190.637C187.984 193.353 186.434 195.618 184.961 197.21C183.479 198.812 182.196 199.595 180.921 199.595V200.259ZM190.367 191.008L190.917 191.38L192.676 188.774L192.126 188.402L191.575 188.031L189.816 190.637L190.367 191.008ZM192.126 188.402L192.524 188.934C192.578 188.894 192.571 188.92 192.5 188.92C192.461 188.92 192.407 188.911 192.35 188.881C192.292 188.851 192.25 188.809 192.225 188.771L192.777 188.402L193.33 188.034C193.136 187.743 192.826 187.592 192.5 187.592C192.201 187.592 191.934 187.716 191.727 187.871L192.126 188.402ZM192.777 188.402L192.227 188.031L190.468 190.637L191.018 191.008L191.569 191.38L193.328 188.774L192.777 188.402ZM191.018 191.008L190.467 190.638C188.798 193.125 187.182 195.522 185.546 197.301C183.89 199.101 182.35 200.116 180.856 200.116V200.78V201.444C182.945 201.444 184.824 200.048 186.524 198.2C188.242 196.331 189.917 193.842 191.57 191.378L191.018 191.008ZM203.917 191.66L204.553 191.851L204.809 190.995H203.917V191.66ZM203.526 191.66V190.995H203.172L202.975 191.289L203.526 191.66ZM193.233 186.318L193.792 186.676L193.793 186.675L193.233 186.318ZM211.669 177.719L211.517 178.365L211.979 178.474L212.231 178.072L211.669 177.719ZM225.284 156.025L225.847 156.378L226.485 155.361H225.284V156.025ZM214.34 156.025L213.77 155.684L213.167 156.69H214.34V156.025ZM214.731 155.374V154.71H214.355L214.161 155.032L214.731 155.374ZM231.343 152.442V151.778H231.007L230.808 152.049L231.343 152.442ZM232.19 152.442L232.753 152.795L233.389 151.778H232.19V152.442ZM210.236 187.49L209.673 187.138L209.671 187.14L210.236 187.49ZM216.164 191.595L215.613 191.223L215.612 191.224L216.164 191.595ZM218.314 188.402L218.017 187.808L217.86 187.886L217.763 188.031L218.314 188.402ZM218.965 188.402L219.516 188.773L219.822 188.32L219.435 187.933L218.965 188.402ZM216.685 191.79L217.235 192.162L217.236 192.161L216.685 191.79ZM203.395 190.682L203.954 191.042L203.954 191.041L203.395 190.682ZM207.956 183.582L208.515 183.941L208.518 183.935L207.956 183.582ZM211.148 178.5L211.71 178.854L212.071 178.28L211.489 177.931L211.148 178.5ZM197.337 186.969L197.887 187.342L197.89 187.338L197.337 186.969ZM206.783 200.585V199.92C205.785 199.92 205.162 199.549 204.748 198.888C204.301 198.174 204.06 197.054 204.06 195.503H203.395H202.731C202.731 197.145 202.978 198.565 203.622 199.593C204.3 200.676 205.37 201.249 206.783 201.249V200.585ZM203.395 195.503H204.06C204.06 194.311 204.185 193.076 204.553 191.851L203.917 191.66L203.28 191.469C202.866 192.849 202.731 194.22 202.731 195.503H203.395ZM203.917 191.66V190.995H203.526V191.66V192.324H203.917V191.66ZM203.526 191.66L202.975 191.289C200.896 194.374 199.167 196.625 197.669 198.1C196.155 199.59 194.982 200.181 194.015 200.181V200.845V201.509C195.522 201.509 197.02 200.602 198.601 199.047C200.197 197.475 201.986 195.134 204.077 192.031L203.526 191.66ZM194.015 200.845V200.181C193.153 200.181 192.43 199.68 191.888 198.732C191.341 197.775 191.031 196.431 191.031 194.982H190.366H189.702C189.702 196.595 190.043 198.182 190.734 199.391C191.43 200.609 192.531 201.509 194.015 201.509V200.845ZM190.366 194.982H191.031C191.031 192.155 192.205 189.152 193.792 186.676L193.233 186.318L192.674 185.959C191.003 188.565 189.702 191.816 189.702 194.982H190.366ZM193.233 186.318L193.793 186.675C197.143 181.428 202.615 178.057 208.477 178.057V177.393V176.729C202.092 176.729 196.228 180.393 192.673 185.96L193.233 186.318ZM208.477 177.393V178.057C209.618 178.057 210.475 178.12 211.517 178.365L211.669 177.719L211.821 177.072C210.647 176.796 209.681 176.729 208.477 176.729V177.393ZM211.669 177.719L212.231 178.072L225.847 156.378L225.284 156.025L224.722 155.672L211.106 177.366L211.669 177.719ZM225.284 156.025V155.361H214.34V156.025V156.69H225.284V156.025ZM214.34 156.025L214.909 156.367L215.3 155.716L214.731 155.374L214.161 155.032L213.77 155.684L214.34 156.025ZM214.731 155.374V156.038H224.698V155.374V154.71H214.731V155.374ZM224.698 155.374V156.038C227.695 156.038 230.083 155.277 231.878 152.836L231.343 152.442L230.808 152.049C229.345 154.038 227.433 154.71 224.698 154.71V155.374ZM231.343 152.442V153.107H232.19V152.442V151.778H231.343V152.442ZM232.19 152.442L231.627 152.09L209.673 187.138L210.236 187.49L210.799 187.843L232.753 152.795L232.19 152.442ZM210.236 187.49L209.671 187.14C208.083 189.7 206.732 191.826 205.784 193.574C204.848 195.3 204.23 196.784 204.23 198.044H204.894H205.558C205.558 197.154 206.015 195.935 206.952 194.208C207.876 192.503 209.196 190.427 210.8 187.841L210.236 187.49ZM204.894 198.044H204.23C204.23 198.722 204.35 199.417 204.792 199.944C205.254 200.496 205.948 200.728 206.783 200.728V200.063V199.399C206.184 199.399 205.934 199.239 205.81 199.091C205.665 198.918 205.558 198.603 205.558 198.044H204.894ZM206.783 200.063V200.728C208.574 200.728 210.248 199.702 211.838 198.163C213.438 196.613 215.049 194.447 216.715 191.965L216.164 191.595L215.612 191.224C213.956 193.693 212.408 195.761 210.914 197.208C209.409 198.666 208.054 199.399 206.783 199.399V200.063ZM216.164 191.595L216.715 191.966L218.865 188.773L218.314 188.402L217.763 188.031L215.613 191.223L216.164 191.595ZM218.314 188.402L218.611 188.997C218.666 188.969 218.695 188.969 218.688 188.969C218.686 188.969 218.591 188.968 218.495 188.872L218.965 188.402L219.435 187.933C219.209 187.706 218.919 187.64 218.688 187.64C218.453 187.64 218.222 187.706 218.017 187.808L218.314 188.402ZM218.965 188.402L218.414 188.032L216.134 191.419L216.685 191.79L217.236 192.161L219.516 188.773L218.965 188.402ZM216.685 191.79L216.135 191.418C214.507 193.827 212.943 195.976 211.367 197.521C209.783 199.072 208.282 199.92 206.783 199.92V200.585V201.249C208.802 201.249 210.623 200.11 212.297 198.469C213.978 196.822 215.606 194.574 217.235 192.162L216.685 191.79ZM192.451 198.239H191.787C191.787 198.969 191.979 199.639 192.398 200.14C192.828 200.653 193.444 200.923 194.145 200.923V200.259V199.595C193.803 199.595 193.573 199.474 193.416 199.287C193.249 199.087 193.115 198.748 193.115 198.239H192.451ZM194.145 200.259V200.923C195.481 200.923 196.905 199.985 198.441 198.4C200.009 196.782 201.829 194.345 203.954 191.042L203.395 190.682L202.837 190.323C200.728 193.6 198.964 195.951 197.487 197.476C195.977 199.034 194.893 199.595 194.145 199.595V200.259ZM203.395 190.682L203.954 191.041L208.515 183.941L207.956 183.582L207.397 183.223L202.837 190.324L203.395 190.682ZM207.956 183.582L208.518 183.935L211.71 178.854L211.148 178.5L210.585 178.147L207.393 183.228L207.956 183.582ZM211.148 178.5L211.489 177.931C210.698 177.456 209.718 177.25 208.477 177.25V177.914V178.578C209.581 178.578 210.295 178.763 210.806 179.07L211.148 178.5ZM208.477 177.914V177.25C206.127 177.25 204.137 178.184 202.274 179.817C200.428 181.434 198.678 183.761 196.784 186.601L197.337 186.969L197.89 187.338C199.775 184.51 201.444 182.31 203.149 180.816C204.836 179.338 206.527 178.578 208.477 178.578V177.914ZM197.337 186.969L196.787 186.597C195.337 188.739 194.094 190.924 193.211 192.922C192.336 194.904 191.787 196.765 191.787 198.239H192.451H193.115C193.115 197.043 193.576 195.386 194.427 193.459C195.271 191.548 196.471 189.433 197.887 187.342L197.337 186.969Z" fill="white" mask="url(#path-4-outside-2_3728_241)"/>
<mask id="path-6-outside-3_3728_241" maskUnits="userSpaceOnUse" x="177.769" y="178.112" width="64" height="72" fill="black">
<rect fill="white" x="177.769" y="178.112" width="64" height="72"/>
<path d="M191.612 227.568C188.55 227.568 187.378 223.985 187.378 221.444C187.378 212.258 195.13 204.376 201.905 204.376H202.035C202.882 204.376 203.599 204.571 204.12 204.897L204.315 204.962H211.937C212.003 205.158 212.068 205.353 211.742 205.549H204.837C205.358 206.265 205.618 207.307 205.618 208.61C205.618 211.412 204.446 214.929 202.426 218.317C199.625 223.007 195.13 227.568 191.612 227.568ZM191.612 226.981C194.804 226.981 198.583 222.421 201.319 217.666C203.338 214.148 204.837 210.63 204.837 208.024C204.837 206.917 204.576 206.07 204.055 205.549H200.863C198.713 206.851 195.977 210.044 193.697 213.627C191.352 217.405 189.527 221.639 189.527 224.441C189.527 226.004 190.049 226.981 191.612 226.981ZM180.237 247.241C182.452 247.502 183.234 247.632 185.318 247.632C190.4 247.632 191.312 246.655 201.214 229.978L215.741 205.549H210.204C210.269 205.353 210.334 205.158 210.53 204.962H216.132L221.148 196.493C228.901 183.529 234.568 178.969 238.151 178.969C239.715 178.969 240.301 180.077 240.301 181.249C240.301 185.614 234.568 193.757 220.236 204.962H229.161C229.161 205.158 229.031 205.353 228.835 205.549H228.51C219.911 205.549 217.109 211.412 213.07 218.252L208.184 226.46C202.908 235.32 197.305 243.658 189.748 247.437C186.491 249 183.169 249.261 178.999 249.261L180.237 247.241ZM215.285 213.171H215.481C217.956 209.392 220.432 206.656 224.471 205.549H219.845L215.285 213.171ZM220.888 203.855C234.503 192.976 239.715 184.702 239.715 181.054C239.715 180.012 239.193 179.49 238.281 179.49C235.48 179.49 232.418 184.572 225.057 196.884L220.888 203.855Z"/>
</mask>
<path d="M191.612 227.568C188.55 227.568 187.378 223.985 187.378 221.444C187.378 212.258 195.13 204.376 201.905 204.376H202.035C202.882 204.376 203.599 204.571 204.12 204.897L204.315 204.962H211.937C212.003 205.158 212.068 205.353 211.742 205.549H204.837C205.358 206.265 205.618 207.307 205.618 208.61C205.618 211.412 204.446 214.929 202.426 218.317C199.625 223.007 195.13 227.568 191.612 227.568ZM191.612 226.981C194.804 226.981 198.583 222.421 201.319 217.666C203.338 214.148 204.837 210.63 204.837 208.024C204.837 206.917 204.576 206.07 204.055 205.549H200.863C198.713 206.851 195.977 210.044 193.697 213.627C191.352 217.405 189.527 221.639 189.527 224.441C189.527 226.004 190.049 226.981 191.612 226.981ZM180.237 247.241C182.452 247.502 183.234 247.632 185.318 247.632C190.4 247.632 191.312 246.655 201.214 229.978L215.741 205.549H210.204C210.269 205.353 210.334 205.158 210.53 204.962H216.132L221.148 196.493C228.901 183.529 234.568 178.969 238.151 178.969C239.715 178.969 240.301 180.077 240.301 181.249C240.301 185.614 234.568 193.757 220.236 204.962H229.161C229.161 205.158 229.031 205.353 228.835 205.549H228.51C219.911 205.549 217.109 211.412 213.07 218.252L208.184 226.46C202.908 235.32 197.305 243.658 189.748 247.437C186.491 249 183.169 249.261 178.999 249.261L180.237 247.241ZM215.285 213.171H215.481C217.956 209.392 220.432 206.656 224.471 205.549H219.845L215.285 213.171ZM220.888 203.855C234.503 192.976 239.715 184.702 239.715 181.054C239.715 180.012 239.193 179.49 238.281 179.49C235.48 179.49 232.418 184.572 225.057 196.884L220.888 203.855Z" fill="white"/>
<path d="M204.12 204.897L203.768 205.46L203.835 205.502L203.91 205.527L204.12 204.897ZM204.315 204.962L204.105 205.592L204.208 205.626H204.315V204.962ZM211.937 204.962L212.568 204.752L212.416 204.298H211.937V204.962ZM211.742 205.549V206.213H211.926L212.084 206.118L211.742 205.549ZM204.837 205.549V204.884H203.532L204.299 205.939L204.837 205.549ZM202.426 218.317L202.996 218.658L202.997 218.657L202.426 218.317ZM201.319 217.666L201.894 217.997L201.895 217.996L201.319 217.666ZM204.055 205.549L204.525 205.079L204.33 204.884H204.055V205.549ZM200.863 205.549V204.884H200.677L200.518 204.98L200.863 205.549ZM193.697 213.627L193.136 213.27L193.132 213.276L193.697 213.627ZM191.612 227.568V226.903C190.395 226.903 189.526 226.211 188.927 225.135C188.319 224.044 188.042 222.631 188.042 221.444H187.378H186.713C186.713 222.798 187.023 224.447 187.766 225.782C188.519 227.133 189.767 228.232 191.612 228.232V227.568ZM187.378 221.444H188.042C188.042 217.037 189.904 212.923 192.596 209.908C195.299 206.881 198.763 205.04 201.905 205.04V204.376V203.712C198.272 203.712 194.473 205.812 191.605 209.023C188.728 212.246 186.713 216.665 186.713 221.444H187.378ZM201.905 204.376V205.04H202.035V204.376V203.712H201.905V204.376ZM202.035 204.376V205.04C202.786 205.04 203.374 205.214 203.768 205.46L204.12 204.897L204.472 204.334C203.824 203.929 202.979 203.712 202.035 203.712V204.376ZM204.12 204.897L203.91 205.527L204.105 205.592L204.315 204.962L204.525 204.332L204.33 204.267L204.12 204.897ZM204.315 204.962V205.626H211.937V204.962V204.298H204.315V204.962ZM211.937 204.962L211.307 205.172C211.316 205.198 211.321 205.214 211.325 205.228C211.329 205.241 211.33 205.245 211.33 205.244C211.33 205.243 211.321 205.204 211.331 205.146C211.342 205.081 211.369 205.026 211.398 204.99C211.422 204.959 211.434 204.959 211.4 204.979L211.742 205.549L212.084 206.118C212.349 205.959 212.583 205.718 212.641 205.365C212.69 205.075 212.588 204.815 212.568 204.752L211.937 204.962ZM211.742 205.549V204.884H204.837V205.549V206.213H211.742V205.549ZM204.837 205.549L204.299 205.939C204.706 206.498 204.954 207.381 204.954 208.61H205.618H206.283C206.283 207.234 206.01 206.032 205.374 205.158L204.837 205.549ZM205.618 208.61H204.954C204.954 211.25 203.839 214.649 201.856 217.977L202.426 218.317L202.997 218.657C205.052 215.21 206.283 211.573 206.283 208.61H205.618ZM202.426 218.317L201.856 217.976C200.483 220.275 198.699 222.533 196.843 224.208C194.959 225.907 193.115 226.903 191.612 226.903V227.568V228.232C193.627 228.232 195.789 226.948 197.733 225.194C199.704 223.417 201.568 221.05 202.996 218.658L202.426 218.317ZM191.612 226.981V227.646C193.497 227.646 195.407 226.325 197.113 224.57C198.85 222.782 200.51 220.403 201.894 217.997L201.319 217.666L200.743 217.334C199.391 219.684 197.794 221.962 196.16 223.644C194.494 225.358 192.92 226.317 191.612 226.317V226.981ZM201.319 217.666L201.895 217.996C202.915 216.218 203.812 214.427 204.456 212.739C205.096 211.059 205.501 209.442 205.501 208.024H204.837H204.172C204.172 209.212 203.828 210.656 203.214 212.266C202.604 213.868 201.742 215.595 200.743 217.335L201.319 217.666ZM204.837 208.024H205.501C205.501 206.834 205.224 205.778 204.525 205.079L204.055 205.549L203.585 206.018C203.928 206.361 204.172 206.999 204.172 208.024H204.837ZM204.055 205.549V204.884H200.863V205.549V206.213H204.055V205.549ZM200.863 205.549L200.518 204.98C198.232 206.366 195.429 209.668 193.136 213.27L193.697 213.627L194.257 213.983C196.525 210.419 199.194 207.337 201.207 206.117L200.863 205.549ZM193.697 213.627L193.132 213.276C191.943 215.192 190.882 217.23 190.116 219.154C189.354 221.066 188.863 222.917 188.863 224.441H189.527H190.192C190.192 223.163 190.613 221.496 191.35 219.646C192.082 217.808 193.105 215.84 194.261 213.977L193.697 213.627ZM189.527 224.441H188.863C188.863 225.272 188.997 226.082 189.45 226.693C189.933 227.346 190.682 227.646 191.612 227.646V226.981V226.317C190.979 226.317 190.685 226.128 190.517 225.902C190.318 225.633 190.192 225.173 190.192 224.441H189.527ZM180.237 247.241L180.315 246.582L179.893 246.532L179.671 246.894L180.237 247.241ZM201.214 229.978L200.643 229.638L200.643 229.639L201.214 229.978ZM215.741 205.549L216.312 205.888L216.909 204.884H215.741V205.549ZM210.204 205.549L209.574 205.338L209.282 206.213H210.204V205.549ZM210.53 204.962V204.298H210.255L210.06 204.493L210.53 204.962ZM216.132 204.962V205.626H216.511L216.704 205.301L216.132 204.962ZM221.148 196.493L220.578 196.152L220.577 196.155L221.148 196.493ZM220.236 204.962L219.827 204.439L218.308 205.626H220.236V204.962ZM229.161 204.962H229.825V204.298H229.161V204.962ZM228.835 205.549V206.213H229.111L229.305 206.018L228.835 205.549ZM213.07 218.252L213.641 218.592L213.642 218.59L213.07 218.252ZM208.184 226.46L208.755 226.8L208.755 226.8L208.184 226.46ZM189.748 247.437L190.036 248.036L190.045 248.031L189.748 247.437ZM178.999 249.261L178.433 248.914L177.813 249.925H178.999V249.261ZM215.285 213.171L214.715 212.829L214.114 213.835H215.285V213.171ZM215.481 213.171V213.835H215.84L216.036 213.535L215.481 213.171ZM224.471 205.549L224.646 206.189L224.471 204.884V205.549ZM219.845 205.549V204.884H219.469L219.275 205.208L219.845 205.549ZM220.888 203.855L220.318 203.514L221.302 204.374L220.888 203.855ZM225.057 196.884L225.627 197.225L225.627 197.225L225.057 196.884ZM180.237 247.241L180.16 247.901C182.367 248.161 183.188 248.297 185.318 248.297V247.632V246.968C183.28 246.968 182.537 246.843 180.315 246.582L180.237 247.241ZM185.318 247.632V248.297C186.598 248.297 187.71 248.238 188.783 247.842C189.87 247.441 190.855 246.719 191.952 245.504C194.108 243.113 196.852 238.626 201.785 230.317L201.214 229.978L200.643 229.639C195.674 238.007 193.01 242.347 190.965 244.614C189.96 245.728 189.146 246.292 188.323 246.596C187.487 246.904 186.58 246.968 185.318 246.968V247.632ZM201.214 229.978L201.785 230.317L216.312 205.888L215.741 205.549L215.17 205.209L200.643 229.638L201.214 229.978ZM215.741 205.549V204.884H210.204V205.549V206.213H215.741V205.549ZM210.204 205.549L210.834 205.759C210.869 205.655 210.887 205.602 210.912 205.552C210.932 205.512 210.957 205.474 210.999 205.432L210.53 204.962L210.06 204.493C209.745 204.808 209.641 205.138 209.574 205.338L210.204 205.549ZM210.53 204.962V205.626H216.132V204.962V204.298H210.53V204.962ZM216.132 204.962L216.704 205.301L221.72 196.832L221.148 196.493L220.577 196.155L215.561 204.624L216.132 204.962ZM221.148 196.493L221.718 196.834C225.579 190.378 228.9 186.05 231.677 183.346C234.474 180.621 236.625 179.634 238.151 179.634V178.969V178.305C236.094 178.305 233.62 179.598 230.75 182.394C227.859 185.21 224.47 189.645 220.578 196.152L221.148 196.493ZM238.151 178.969V179.634C238.76 179.634 239.096 179.84 239.296 180.087C239.514 180.357 239.637 180.762 239.637 181.249H240.301H240.965C240.965 180.564 240.795 179.829 240.329 179.252C239.845 178.652 239.106 178.305 238.151 178.305V178.969ZM240.301 181.249H239.637C239.637 183.189 238.335 186.161 235.127 190.123C231.944 194.053 226.969 198.855 219.827 204.439L220.236 204.962L220.645 205.486C227.835 199.865 232.892 194.993 236.159 190.959C239.4 186.957 240.965 183.675 240.965 181.249H240.301ZM220.236 204.962V205.626H229.161V204.962V204.298H220.236V204.962ZM229.161 204.962H228.497C228.497 204.909 228.515 204.892 228.498 204.921C228.48 204.951 228.441 205.004 228.366 205.079L228.835 205.549L229.305 206.018C229.519 205.805 229.825 205.442 229.825 204.962H229.161ZM228.835 205.549V204.884H228.51V205.549V206.213H228.835V205.549ZM228.51 205.549V204.884C224.025 204.884 221.006 206.427 218.606 208.87C216.253 211.264 214.492 214.538 212.498 217.914L213.07 218.252L213.642 218.59C215.688 215.126 217.346 212.047 219.554 209.801C221.714 207.602 224.395 206.213 228.51 206.213V205.549ZM213.07 218.252L212.5 217.912L207.614 226.12L208.184 226.46L208.755 226.8L213.641 218.592L213.07 218.252ZM208.184 226.46L207.614 226.12C202.324 235.003 196.809 243.164 189.451 246.843L189.748 247.437L190.045 248.031C197.802 244.153 203.492 235.637 208.755 226.8L208.184 226.46ZM189.748 247.437L189.461 246.838C186.346 248.333 183.151 248.597 178.999 248.597V249.261V249.925C183.187 249.925 186.637 249.667 190.036 248.036L189.748 247.437ZM178.999 249.261L179.566 249.608L180.804 247.589L180.237 247.241L179.671 246.894L178.433 248.914L178.999 249.261ZM215.285 213.171V213.835H215.481V213.171V212.506H215.285V213.171ZM215.481 213.171L216.036 213.535C218.485 209.797 220.846 207.231 224.646 206.189L224.471 205.549L224.295 204.908C220.017 206.081 217.427 208.988 214.925 212.806L215.481 213.171ZM224.471 205.549V204.884H219.845V205.549V206.213H224.471V205.549ZM219.845 205.549L219.275 205.208L214.715 212.829L215.285 213.171L215.855 213.512L220.415 205.89L219.845 205.549ZM220.888 203.855L221.302 204.374C228.139 198.911 232.887 194.086 235.932 190.149C237.455 188.181 238.56 186.425 239.286 184.914C240.008 183.413 240.379 182.108 240.379 181.054H239.715H239.05C239.05 181.824 238.77 182.922 238.089 184.338C237.413 185.744 236.364 187.42 234.882 189.336C231.917 193.168 227.252 197.919 220.473 203.336L220.888 203.855ZM239.715 181.054H240.379C240.379 180.43 240.223 179.852 239.825 179.427C239.42 178.995 238.863 178.826 238.281 178.826V179.49V180.155C238.612 180.155 238.772 180.246 238.855 180.336C238.946 180.432 239.05 180.635 239.05 181.054H239.715ZM238.281 179.49V178.826C237.366 178.826 236.502 179.245 235.641 179.968C234.783 180.689 233.87 181.761 232.841 183.18C230.784 186.02 228.16 190.4 224.487 196.543L225.057 196.884L225.627 197.225C229.315 191.056 231.903 186.74 233.917 183.96C234.924 182.57 235.762 181.602 236.496 180.985C237.227 180.371 237.797 180.155 238.281 180.155V179.49ZM225.057 196.884L224.487 196.543L220.318 203.514L220.888 203.855L221.458 204.196L225.627 197.225L225.057 196.884Z" fill="white" mask="url(#path-6-outside-3_3728_241)"/>
</svg>
